<svg width="12" height="13" viewBox="0 0 12 13" fill="none" xmlns="http://www.w3.org/2000/svg">
<path d="M1.83304 2.50018V10.1664C1.83296 10.3853 1.87603 10.6021 1.95977 10.8044C2.04351 11.0067 2.16629 11.1905 2.32109 11.3453C2.4759 11.5001 2.65969 11.6229 2.86197 11.7066C3.06424 11.7904 3.28104 11.8334 3.49996 11.8333H8.16684C8.60878 11.8333 9.03261 11.6578 9.3451 11.3453C9.65759 11.0328 9.83315 10.609 9.83315 10.167V2.49957M0.5 2.50018H11.1668M3.83322 2.50018V1.49979C3.83306 1.36839 3.85883 1.23826 3.90906 1.11685C3.95928 0.99544 4.03298 0.885133 4.12591 0.792255C4.21885 0.699376 4.3292 0.625752 4.45064 0.575601C4.57208 0.52545 4.70223 0.49976 4.83362 0.500002H6.83319C6.96458 0.49976 7.09472 0.52545 7.21617 0.575601C7.33761 0.625752 7.44796 0.699376 7.5409 0.792255C7.63383 0.885133 7.70753 0.99544 7.75775 1.11685C7.80798 1.23826 7.83375 1.36839 7.83358 1.49979V2.50018M4.50036 9.22483V5.89283M7.16706 9.22483V5.89283" stroke="#7F1D1D" stroke-linecap="round" stroke-linejoin="round"/>
</svg>
