<svg width="20" height="20" viewBox="0 0 20 20" fill="none" xmlns="http://www.w3.org/2000/svg">
<path d="M9.59961 12.3C11.1812 12.3 12.4634 11.0911 12.4634 9.59998C12.4634 8.10881 11.1812 6.89998 9.59961 6.89998C8.018 6.89998 6.73586 8.10881 6.73586 9.59998C6.73586 11.0911 8.018 12.3 9.59961 12.3Z" stroke="#64748B" stroke-width="1.2"/>
<path d="M11.2845 0.736776C10.9341 0.599976 10.4893 0.599976 9.59961 0.599976C8.70994 0.599976 8.2651 0.599976 7.91477 0.736776C7.68298 0.827237 7.47237 0.959882 7.29498 1.12713C7.11759 1.29437 6.9769 1.49294 6.88095 1.71148C6.79313 1.91218 6.75781 2.14708 6.74445 2.48818C6.73823 2.73471 6.66579 2.97573 6.53391 3.18869C6.40202 3.40166 6.21499 3.5796 5.99033 3.70588C5.76199 3.82627 5.505 3.89008 5.24339 3.89134C4.98178 3.8926 4.72411 3.83126 4.49449 3.71308C4.17375 3.55288 3.94179 3.46468 3.71173 3.43588C3.20992 3.37366 2.70245 3.50185 2.30086 3.79228C2.00112 4.01098 1.77774 4.37368 1.33291 5.09998C0.88807 5.82628 0.664698 6.18898 0.616014 6.54448C0.58321 6.77888 0.599709 7.01709 0.66457 7.24548C0.729431 7.47387 0.841383 7.68798 0.994029 7.87558C1.13531 8.04838 1.33291 8.19328 1.63933 8.37508C2.09085 8.64238 2.38104 9.09778 2.38104 9.59998C2.38104 10.1022 2.09085 10.5576 1.63933 10.824C1.33291 11.0067 1.13435 11.1516 0.994029 11.3244C0.841383 11.512 0.729431 11.7261 0.66457 11.9545C0.599709 12.1829 0.58321 12.4211 0.616014 12.6555C0.665652 13.0101 0.88807 13.3737 1.33195 14.1C1.77774 14.8263 2.00016 15.189 2.30086 15.4077C2.49983 15.5516 2.72692 15.6571 2.96917 15.7183C3.21141 15.7794 3.46406 15.795 3.71269 15.7641C3.94179 15.7353 4.17375 15.6471 4.49449 15.4869C4.72411 15.3687 4.98178 15.3074 5.24339 15.3086C5.505 15.3099 5.76199 15.3737 5.99033 15.4941C6.45139 15.7461 6.72536 16.2096 6.74445 16.7118C6.75781 17.0538 6.79218 17.2878 6.88095 17.4885C6.9769 17.707 7.11759 17.9056 7.29498 18.0728C7.47237 18.2401 7.68298 18.3727 7.91477 18.4632C8.2651 18.6 8.70994 18.6 9.59961 18.6C10.4893 18.6 10.9341 18.6 11.2845 18.4632C11.5162 18.3727 11.7269 18.2401 11.9042 18.0728C12.0816 17.9056 12.2223 17.707 12.3183 17.4885C12.4061 17.2878 12.4414 17.0538 12.4548 16.7118C12.4739 16.2096 12.7478 15.7452 13.2089 15.4941C13.4372 15.3737 13.6942 15.3099 13.9558 15.3086C14.2174 15.3074 14.4751 15.3687 14.7047 15.4869C15.0255 15.6471 15.2574 15.7353 15.4865 15.7641C15.7352 15.795 15.9878 15.7794 16.2301 15.7183C16.4723 15.6571 16.6994 15.5516 16.8984 15.4077C17.1991 15.1899 17.4215 14.8263 17.8663 14.1C18.3111 13.3737 18.5345 13.011 18.5832 12.6555C18.616 12.4211 18.5995 12.1829 18.5346 11.9545C18.4698 11.7261 18.3578 11.512 18.2052 11.3244C18.0639 11.1516 17.8663 11.0067 17.5599 10.8249C17.3364 10.6965 17.1512 10.5168 17.0215 10.3026C16.8918 10.0884 16.8218 9.84663 16.8182 9.59998C16.8182 9.09778 17.1084 8.64238 17.5599 8.37598C17.8663 8.19328 18.0649 8.04838 18.2052 7.87558C18.3578 7.68798 18.4698 7.47387 18.5346 7.24548C18.5995 7.01709 18.616 6.77888 18.5832 6.54448C18.5336 6.18988 18.3111 5.82628 17.8673 5.09998C17.4215 4.37368 17.1991 4.01098 16.8984 3.79228C16.6994 3.64836 16.4723 3.54281 16.2301 3.48166C15.9878 3.4205 15.7352 3.40495 15.4865 3.43588C15.2574 3.46468 15.0255 3.55288 14.7038 3.71308C14.4743 3.8311 14.2168 3.89235 13.9553 3.89109C13.6939 3.88983 13.4371 3.82611 13.2089 3.70588C12.9842 3.5796 12.7972 3.40166 12.6653 3.18869C12.5334 2.97573 12.461 2.73471 12.4548 2.48818C12.4414 2.14618 12.407 1.91218 12.3183 1.71148C12.2223 1.49294 12.0816 1.29437 11.9042 1.12713C11.7269 0.959882 11.5162 0.827237 11.2845 0.736776Z" stroke="#64748B" stroke-width="1.2"/>
</svg>
