<svg width="24" height="24" viewBox="0 0 24 24" fill="none" xmlns="http://www.w3.org/2000/svg">
<path d="M10.4 15.75H7.2M13.6 15.75H12.4M4 10.875H20M4 12.5C4 9.43606 4 7.90369 4.9376 6.95225C5.8752 6.00081 7.3832 6 10.4 6H13.6C16.6168 6 18.1256 6 19.0624 6.95225C19.9992 7.9045 20 9.43606 20 12.5C20 15.5639 20 17.0963 19.0624 18.0477C18.1248 18.9992 16.6168 19 13.6 19H10.4C7.3832 19 5.8744 19 4.9376 18.0477C4.0008 17.0955 4 15.5639 4 12.5Z" stroke="#0EA5E9" stroke-width="1.5" stroke-linecap="round"/>
</svg>
