<svg width="15" height="11" viewBox="0 0 15 11" fill="none" xmlns="http://www.w3.org/2000/svg">
<path d="M10.5 3.49V3.5M1 8L4.646 4.354C4.7581 4.24176 4.89122 4.15272 5.03776 4.09197C5.1843 4.03122 5.34137 3.99996 5.5 3.99996C5.65863 3.99996 5.8157 4.03122 5.96224 4.09197C6.10878 4.15272 6.2419 4.24176 6.354 4.354L9.75 7.75L11.323 6.177C11.4363 6.06378 11.5899 6.00019 11.75 6.00019C11.9101 6.00019 12.0637 6.06378 12.177 6.177L14 8M5.5 10.5H9.5C11.857 10.5 13.035 10.5 13.768 9.768C14.5 9.035 14.5 7.857 14.5 5.5C14.5 3.143 14.5 1.964 13.768 1.232C13.035 0.5 11.857 0.5 9.5 0.5H5.5C3.143 0.5 1.964 0.5 1.232 1.232C0.5 1.964 0.5 3.143 0.5 5.5C0.5 7.857 0.5 9.035 1.232 9.768C1.964 10.501 3.143 10.5 5.5 10.5Z" stroke="#212121" stroke-linecap="round" stroke-linejoin="round"/>
</svg>
