<svg width="11" height="15" viewBox="0 0 11 15" fill="none" xmlns="http://www.w3.org/2000/svg">
<path d="M0.5 9.5V5.5C0.5 3.143 0.5 1.964 1.232 1.232C1.964 0.5 3.143 0.5 5.5 0.5C7.857 0.5 9.036 0.5 9.768 1.232C10.5 1.964 10.5 3.143 10.5 5.5V9.5M0.5 9.5C0.5 11.857 0.5 13.036 1.232 13.768C1.964 14.5 3.143 14.5 5.5 14.5C7.857 14.5 9.036 14.5 9.768 13.768C10.5 13.036 10.5 11.857 10.5 9.5M0.5 9.5L3.146 6.854C3.2581 6.74176 3.39122 6.65272 3.53776 6.59197C3.6843 6.53122 3.84137 6.49996 4 6.49996C4.15863 6.49996 4.3157 6.53122 4.46224 6.59197C4.60878 6.65272 4.7419 6.74176 4.854 6.854L6.75 8.75L7.823 7.677C7.93626 7.56378 8.08985 7.50019 8.25 7.50019C8.41015 7.50019 8.56374 7.56378 8.677 7.677L10.5 9.5M7 3.99V4" stroke="#5380E5" stroke-linecap="round" stroke-linejoin="round"/>
</svg>
