<svg width="24" height="24" viewBox="0 0 24 24" fill="none" xmlns="http://www.w3.org/2000/svg">
<path d="M7.69231 3.6C7.69231 3.75913 7.62747 3.91174 7.51207 4.02426C7.39666 4.13679 7.24013 4.2 7.07692 4.2H6.46154C5.78338 4.2 5.23077 4.7388 5.23077 5.4V6C5.23077 6.15913 5.16593 6.31174 5.05053 6.42426C4.93512 6.53679 4.77859 6.6 4.61538 6.6C4.45217 6.6 4.29565 6.53679 4.18024 6.42426C4.06483 6.31174 4 6.15913 4 6V5.4C4 4.0764 5.104 3 6.46154 3H7.07692C7.24013 3 7.39666 3.06321 7.51207 3.17574C7.62747 3.28826 7.69231 3.44087 7.69231 3.6ZM4.61538 11.4C4.77859 11.4 4.93512 11.3368 5.05053 11.2243C5.16593 11.1117 5.23077 10.9591 5.23077 10.8V8.4C5.23077 8.24087 5.16593 8.08826 5.05053 7.97574C4.93512 7.86321 4.77859 7.8 4.61538 7.8C4.45217 7.8 4.29565 7.86321 4.18024 7.97574C4.06483 8.08826 4 8.24087 4 8.4V10.8C4 10.9591 4.06483 11.1117 4.18024 11.2243C4.29565 11.3368 4.45217 11.4 4.61538 11.4ZM4.61538 16.2C4.77859 16.2 4.93512 16.1368 5.05053 16.0243C5.16593 15.9117 5.23077 15.7591 5.23077 15.6V13.2C5.23077 13.0409 5.16593 12.8883 5.05053 12.7757C4.93512 12.6632 4.77859 12.6 4.61538 12.6C4.45217 12.6 4.29565 12.6632 4.18024 12.7757C4.06483 12.8883 4 13.0409 4 13.2V15.6C4 15.7591 4.06483 15.9117 4.18024 16.0243C4.29565 16.1368 4.45217 16.2 4.61538 16.2ZM7.07692 19.8H6.46154C5.78338 19.8 5.23077 19.2612 5.23077 18.6V18C5.23077 17.8409 5.16593 17.6883 5.05053 17.5757C4.93512 17.4632 4.77859 17.4 4.61538 17.4C4.45217 17.4 4.29565 17.4632 4.18024 17.5757C4.06483 17.6883 4 17.8409 4 18V18.6C4 19.9236 5.104 21 6.46154 21H7.07692C7.24013 21 7.39666 20.9368 7.51207 20.8243C7.62747 20.7117 7.69231 20.5591 7.69231 20.4C7.69231 20.2409 7.62747 20.0883 7.51207 19.9757C7.39666 19.8632 7.24013 19.8 7.07692 19.8ZM15.6923 4.2H16.3077C16.9858 4.2 17.5385 4.7388 17.5385 5.4V6C17.5385 6.15913 17.6033 6.31174 17.7187 6.42426C17.8341 6.53679 17.9906 6.6 18.1538 6.6C18.3171 6.6 18.4736 6.53679 18.589 6.42426C18.7044 6.31174 18.7692 6.15913 18.7692 6V5.4C18.7692 4.0764 17.6652 3 16.3077 3H15.6923C15.5291 3 15.3726 3.06321 15.2572 3.17574C15.1418 3.28826 15.0769 3.44087 15.0769 3.6C15.0769 3.75913 15.1418 3.91174 15.2572 4.02426C15.3726 4.13679 15.5291 4.2 15.6923 4.2ZM9.53846 4.2H13.2308C13.394 4.2 13.5505 4.13679 13.6659 4.02426C13.7813 3.91174 13.8462 3.75913 13.8462 3.6C13.8462 3.44087 13.7813 3.28826 13.6659 3.17574C13.5505 3.06321 13.394 3 13.2308 3H9.53846C9.37525 3 9.21873 3.06321 9.10332 3.17574C8.98791 3.28826 8.92308 3.44087 8.92308 3.6C8.92308 3.75913 8.98791 3.91174 9.10332 4.02426C9.21873 4.13679 9.37525 4.2 9.53846 4.2ZM20 10.2V18.6C20 19.9236 18.896 21 17.5385 21H11.3846C10.0271 21 8.92308 19.9236 8.92308 18.6V10.2C8.92308 8.8764 10.0271 7.8 11.3846 7.8H17.5385C18.896 7.8 20 8.8764 20 10.2ZM18.7692 10.2C18.7692 9.5388 18.2166 9 17.5385 9H11.3846C10.7065 9 10.1538 9.5388 10.1538 10.2V18.6C10.1538 19.2612 10.7065 19.8 11.3846 19.8H17.5385C18.2166 19.8 18.7692 19.2612 18.7692 18.6V10.2ZM16.9231 11.4H12C11.8368 11.4 11.6803 11.4632 11.5649 11.5757C11.4495 11.6883 11.3846 11.8409 11.3846 12C11.3846 12.1591 11.4495 12.3117 11.5649 12.4243C11.6803 12.5368 11.8368 12.6 12 12.6H16.9231C17.0863 12.6 17.2428 12.5368 17.3582 12.4243C17.4736 12.3117 17.5385 12.1591 17.5385 12C17.5385 11.8409 17.4736 11.6883 17.3582 11.5757C17.2428 11.4632 17.0863 11.4 16.9231 11.4Z" fill="#54B375"/>
</svg>
