<svg width="24" height="24" viewBox="0 0 24 24" fill="none" xmlns="http://www.w3.org/2000/svg">
<path d="M18.0958 17.7225H5.90418M16.7693 17.7225V21M7.23066 21V17.7225M17.4237 14.7525C18.627 14.6419 19.5729 13.8569 19.7029 12.8642C19.7029 12.8642 20 11.7312 20 9.52325C20 7.3153 19.7029 6.17963 19.7029 6.17963C19.5715 5.18827 18.627 4.40328 17.4237 4.29134C15.6769 4.12948 13.7591 4 12.0014 4C10.2423 4 8.32444 4.12813 6.57495 4.29134C5.37166 4.40328 4.4271 5.18827 4.29569 6.17963C4.29569 6.17963 4 7.3126 4 9.5219C4 11.7312 4.29569 12.8655 4.29569 12.8655C4.4271 13.8569 5.37166 14.6419 6.57495 14.7538M8.36003 17.7225C8.36003 16.8228 8.45175 15.8787 9.02943 15.18C9.38775 14.7436 9.8403 14.3914 10.3542 14.1489C10.868 13.9065 11.4303 13.78 12 13.7786C13.1951 13.7786 14.2628 14.3249 14.9706 15.1814C15.5483 15.8787 15.64 16.8228 15.64 17.7225M12 11.5532C13.4004 11.5532 14.1875 10.7776 14.1875 9.39781C14.1875 8.01801 13.4004 7.24381 12 7.24381C10.5996 7.24381 9.81246 8.01936 9.81246 9.39781C9.81246 10.7763 10.5996 11.5532 12 11.5532Z" stroke="#8B5CF6" stroke-width="1.5" stroke-linecap="round" stroke-linejoin="round"/>
</svg>
