<svg width="10" height="9" viewBox="0 0 10 9" fill="none" xmlns="http://www.w3.org/2000/svg">
<path fill-rule="evenodd" clip-rule="evenodd" d="M5.10534 0.216571C5.06396 0.150303 5.0064 0.095654 4.93808 0.0577666C4.86976 0.0198792 4.79292 0 4.7148 0C4.63667 0 4.55983 0.0198792 4.49151 0.0577666C4.42319 0.095654 4.36563 0.150303 4.32425 0.216571L3.24742 1.9407L0.731922 0.110946C0.394463 -0.134429 -0.069745 0.159696 0.00879664 0.569196L0.982172 5.68253C1.02353 5.89929 1.13922 6.09483 1.30929 6.23543C1.47937 6.37604 1.69317 6.45291 1.91384 6.45278L7.51738 6.45278C7.73803 6.45276 7.95177 6.37576 8.12174 6.23505C8.29171 6.09435 8.40727 5.89875 8.44851 5.68199L9.42188 0.569196C9.50042 0.159696 9.03676 -0.134971 8.6993 0.110946L6.18326 1.9407L5.10534 0.216571ZM1.46534 7.26528C1.35759 7.26528 1.25426 7.30808 1.17808 7.38427C1.10189 7.46045 1.05909 7.56378 1.05909 7.67153C1.05909 7.77927 1.10189 7.8826 1.17808 7.95879C1.25426 8.03498 1.35759 8.07778 1.46534 8.07778L7.96534 8.07778C8.07308 8.07778 8.17641 8.03498 8.2526 7.95879C8.32879 7.8826 8.37159 7.77927 8.37159 7.67153C8.37159 7.56378 8.32879 7.46045 8.2526 7.38427C8.17641 7.30808 8.07308 7.26528 7.96534 7.26528L1.46534 7.26528Z" fill="url(#paint0_linear_11008_10686)"/>
<defs>
<linearGradient id="paint0_linear_11008_10686" x1="-0.285156" y1="0.0390625" x2="4.00532" y2="9.45681" gradientUnits="userSpaceOnUse">
<stop offset="0.0561081" stop-color="#FFED9D"/>
<stop offset="0.587114" stop-color="#FFD100"/>
<stop offset="1" stop-color="#C29E00"/>
</linearGradient>
</defs>
</svg>
