<svg width="59" height="59" viewBox="0 0 59 59" fill="none" xmlns="http://www.w3.org/2000/svg">
<path opacity="0.8" d="M27.6795 37.101L21.3679 38.655M33.991 35.547L31.6242 36.1298M12.7255 30.7417L44.283 22.9718M13.5025 33.8974C12.0375 27.9473 11.3048 24.9714 12.6991 22.6684C14.0935 20.3654 17.0674 19.6315 23.0176 18.1665L29.3291 16.6125C35.2792 15.1475 38.2551 14.4148 40.5581 15.8092C42.8611 17.2035 43.595 20.1774 45.06 26.1276C46.525 32.0778 47.2577 35.0536 45.8634 37.3567C44.469 39.6597 41.4951 40.3935 35.5449 41.8586L29.2334 43.4125C23.2833 44.8775 20.3074 45.6102 18.0044 44.2159C15.7014 42.8215 14.9675 39.8476 13.5025 33.8974Z" stroke="#0EA5E9" stroke-width="3" stroke-linecap="round"/>
</svg>
