<svg width="112" height="112" viewBox="0 0 112 112" fill="none" xmlns="http://www.w3.org/2000/svg">
<g filter="url(#filter0_d_11516_12139)">
<rect width="72" height="72" rx="12" transform="matrix(1 0 0 -1 20 90)" fill="#DCFCE7" shape-rendering="crispEdges"/>
<rect x="0.5" y="-0.5" width="71" height="71" rx="11.5" transform="matrix(1 0 0 -1 20 89)" stroke="#54B275" stroke-opacity="0.4" shape-rendering="crispEdges"/>
<path opacity="0.8" d="M47.2767 70.8C47.2767 70.4817 47.1454 70.1765 46.9117 69.9515C46.678 69.7264 46.3611 69.6 46.0306 69.6H44.7844C43.4112 69.6 42.2921 68.5224 42.2921 67.2V66C42.2921 65.6817 42.1608 65.3765 41.9271 65.1515C41.6934 64.9264 41.3765 64.8 41.046 64.8C40.7155 64.8 40.3985 64.9264 40.1648 65.1515C39.9311 65.3765 39.7998 65.6817 39.7998 66V67.2C39.7998 69.8472 42.0354 72 44.7844 72H46.0306C46.3611 72 46.678 71.8736 46.9117 71.6485C47.1454 71.4235 47.2767 71.1183 47.2767 70.8ZM41.046 55.2C41.3765 55.2 41.6934 55.3264 41.9271 55.5515C42.1608 55.7765 42.2921 56.0817 42.2921 56.4L42.2921 61.2C42.2921 61.5183 42.1608 61.8235 41.9271 62.0485C41.6934 62.2736 41.3765 62.4 41.046 62.4C40.7155 62.4 40.3985 62.2736 40.1648 62.0485C39.9311 61.8235 39.7998 61.5183 39.7998 61.2L39.7998 56.4C39.7998 56.0817 39.9311 55.7765 40.1648 55.5515C40.3985 55.3264 40.7155 55.2 41.046 55.2ZM41.046 45.6C41.3765 45.6 41.6934 45.7264 41.9271 45.9515C42.1608 46.1765 42.2921 46.4817 42.2921 46.8V51.6C42.2921 51.9183 42.1608 52.2235 41.9271 52.4485C41.6934 52.6736 41.3765 52.8 41.046 52.8C40.7155 52.8 40.3985 52.6736 40.1648 52.4485C39.9311 52.2235 39.7998 51.9183 39.7998 51.6V46.8C39.7998 46.4817 39.9311 46.1765 40.1648 45.9515C40.3985 45.7264 40.7155 45.6 41.046 45.6ZM46.0306 38.4H44.7844C43.4112 38.4 42.2921 39.4776 42.2921 40.8V42C42.2921 42.3183 42.1608 42.6235 41.9271 42.8485C41.6934 43.0736 41.3765 43.2 41.046 43.2C40.7155 43.2 40.3985 43.0736 40.1648 42.8485C39.9311 42.6235 39.7998 42.3183 39.7998 42V40.8C39.7998 38.1528 42.0354 36 44.7844 36H46.0306C46.3611 36 46.678 36.1264 46.9117 36.3515C47.1454 36.5765 47.2767 36.8817 47.2767 37.2C47.2767 37.5183 47.1454 37.8235 46.9117 38.0485C46.678 38.2736 46.3611 38.4 46.0306 38.4ZM63.4767 69.6H64.7229C66.0961 69.6 67.2152 68.5224 67.2152 67.2V66C67.2152 65.6817 67.3465 65.3765 67.5802 65.1515C67.8139 64.9264 68.1308 64.8 68.4613 64.8C68.7918 64.8 69.1088 64.9264 69.3425 65.1515C69.5762 65.3765 69.7075 65.6817 69.7075 66V67.2C69.7075 69.8472 67.4719 72 64.7229 72H63.4767C63.1462 72 62.8293 71.8736 62.5956 71.6485C62.3619 71.4235 62.2306 71.1183 62.2306 70.8C62.2306 70.4817 62.3619 70.1765 62.5956 69.9515C62.8293 69.7264 63.1462 69.6 63.4767 69.6ZM51.0152 69.6H58.4921C58.8226 69.6 59.1396 69.7264 59.3733 69.9515C59.607 70.1765 59.7383 70.4817 59.7383 70.8C59.7383 71.1183 59.607 71.4235 59.3733 71.6485C59.1396 71.8736 58.8226 72 58.4921 72H51.0152C50.6847 72 50.3677 71.8736 50.134 71.6485C49.9003 71.4235 49.769 71.1183 49.769 70.8C49.769 70.4817 49.9003 70.1765 50.134 69.9515C50.3677 69.7264 50.6847 69.6 51.0152 69.6ZM72.1998 57.6V40.8C72.1998 38.1528 69.9642 36 67.2152 36H54.7536C52.0046 36 49.769 38.1528 49.769 40.8L49.769 57.6C49.769 60.2472 52.0046 62.4 54.7536 62.4L67.2152 62.4C69.9642 62.4 72.1998 60.2472 72.1998 57.6ZM69.7075 57.6C69.7075 58.9224 68.5884 60 67.2152 60L54.7536 60C53.3804 60 52.2613 58.9224 52.2613 57.6L52.2613 40.8C52.2613 39.4776 53.3804 38.4 54.7536 38.4H67.2152C68.5884 38.4 69.7075 39.4776 69.7075 40.8V57.6ZM65.969 55.2L55.9998 55.2C55.6693 55.2 55.3523 55.0736 55.1186 54.8485C54.8849 54.6235 54.7536 54.3183 54.7536 54C54.7536 53.6817 54.8849 53.3765 55.1186 53.1515C55.3523 52.9264 55.6693 52.8 55.9998 52.8L65.969 52.8C66.2995 52.8 66.6165 52.9264 66.8502 53.1515C67.0839 53.3765 67.2152 53.6817 67.2152 54C67.2152 54.3183 67.0839 54.6235 66.8502 54.8485C66.6165 55.0736 66.2995 55.2 65.969 55.2Z" fill="#54B375" stroke="#54B275" stroke-width="0.75"/>
</g>
<defs>
<filter id="filter0_d_11516_12139" x="0" y="0" width="112" height="112" filterUnits="userSpaceOnUse" color-interpolation-filters="sRGB">
<feFlood flood-opacity="0" result="BackgroundImageFix"/>
<feColorMatrix in="SourceAlpha" type="matrix" values="0 0 0 0 0 0 0 0 0 0 0 0 0 0 0 0 0 0 127 0" result="hardAlpha"/>
<feOffset dy="2"/>
<feGaussianBlur stdDeviation="10"/>
<feComposite in2="hardAlpha" operator="out"/>
<feColorMatrix type="matrix" values="0 0 0 0 0 0 0 0 0 0.600962 0 0 0 0 0.206581 0 0 0 0.13 0"/>
<feBlend mode="normal" in2="BackgroundImageFix" result="effect1_dropShadow_11516_12139"/>
<feBlend mode="normal" in="SourceGraphic" in2="effect1_dropShadow_11516_12139" result="shape"/>
</filter>
</defs>
</svg>
