<svg width="226" height="123" viewBox="0 0 226 123" fill="none" xmlns="http://www.w3.org/2000/svg">
<g filter="url(#filter0_d_11516_12132)">
<rect x="20.7002" y="46.3438" width="60" height="60" rx="12" transform="rotate(-13.8318 20.7002 46.3438)" fill="#E0F2FE" shape-rendering="crispEdges"/>
<rect x="21.3052" y="46.7097" width="59" height="59" rx="11.5" transform="rotate(-13.8318 21.3052 46.7097)" stroke="#0EA5E9" stroke-opacity="0.4" shape-rendering="crispEdges"/>
<path opacity="0.8" d="M55.6404 76.3608L49.3289 77.9147M61.9519 74.8068L59.5851 75.3895M40.6864 70.0014L72.244 62.2316M41.4634 73.1572C39.9984 67.207 39.2657 64.2311 40.6601 61.9281C42.0544 59.6251 45.0283 58.8912 50.9785 57.4262L57.29 55.8723C63.2402 54.4073 66.2161 53.6746 68.5191 55.0689C70.8221 56.4633 71.556 59.4372 73.021 65.3874C74.486 71.3375 75.2187 74.3134 73.8243 76.6164C72.43 78.9194 69.4561 79.6533 63.5059 81.1183L57.1944 82.6723C51.2442 84.1373 48.2683 84.87 45.9653 83.4756C43.6623 82.0813 42.9284 79.1074 41.4634 73.1572Z" stroke="#0EA5E9" stroke-width="3" stroke-linecap="round"/>
</g>
<g filter="url(#filter1_d_11516_12132)">
<rect width="60" height="60" rx="12" transform="matrix(-0.971002 -0.239072 -0.239072 0.971002 205.604 46.3438)" fill="#EDE9FE" shape-rendering="crispEdges"/>
<rect x="-0.605037" y="0.365965" width="59" height="59" rx="11.5" transform="matrix(-0.971002 -0.239072 -0.239072 0.971002 204.499 46.2097)" stroke="#8B5CF6" stroke-opacity="0.4" shape-rendering="crispEdges"/>
<path opacity="0.8" d="M154.902 76.5426L178.23 82.2862M157.441 77.1675L155.873 83.5325M174.125 88.0262L175.692 81.6613M157.609 71.0915C155.359 70.3098 153.925 68.3398 154.15 66.3507C154.15 66.3507 154.124 64.0105 155.179 59.7226C156.235 55.4348 157.347 53.3692 157.347 53.3692C158.072 51.506 160.255 50.4265 162.611 50.776C166.03 51.2845 169.762 51.9366 173.125 52.7647C176.491 53.5934 180.099 54.7457 183.369 55.8869C185.618 56.6712 187.05 58.6406 186.827 60.6277C186.827 60.6277 186.851 62.9673 185.795 67.2577C184.738 71.5482 183.63 73.6117 183.63 73.6117C182.905 75.475 180.722 76.5545 178.366 76.205M173.531 81.1292C173.961 79.3821 174.237 77.5054 173.466 75.8764C172.989 74.8601 172.292 73.9628 171.424 73.25C170.557 72.5371 169.542 72.0266 168.452 71.7555C166.165 71.1925 163.861 71.7503 162.097 73.0801C160.659 74.1622 160.032 75.9525 159.602 77.6996M169.516 67.4336C166.837 66.7738 165.701 64.8969 166.361 62.2173C167.021 59.5377 168.897 58.4051 171.577 59.0648C174.256 59.7246 175.392 61.6015 174.732 64.2785C174.073 66.9554 172.196 68.0933 169.516 67.4336Z" stroke="#8B5CF6" stroke-width="3" stroke-linecap="round" stroke-linejoin="round"/>
</g>
<g filter="url(#filter2_d_11516_12132)">
<rect width="72" height="72" rx="12" transform="matrix(1 0 0 -1 77 90)" fill="#DCFCE7" shape-rendering="crispEdges"/>
<rect x="0.5" y="-0.5" width="71" height="71" rx="11.5" transform="matrix(1 0 0 -1 77 89)" stroke="#54B275" stroke-opacity="0.4" shape-rendering="crispEdges"/>
<path opacity="0.8" d="M104.277 70.8C104.277 70.4817 104.145 70.1765 103.912 69.9515C103.678 69.7264 103.361 69.6 103.031 69.6H101.784C100.411 69.6 99.2921 68.5224 99.2921 67.2V66C99.2921 65.6817 99.1608 65.3765 98.9271 65.1515C98.6934 64.9264 98.3765 64.8 98.046 64.8C97.7155 64.8 97.3985 64.9264 97.1648 65.1515C96.9311 65.3765 96.7998 65.6817 96.7998 66V67.2C96.7998 69.8472 99.0354 72 101.784 72H103.031C103.361 72 103.678 71.8736 103.912 71.6485C104.145 71.4235 104.277 71.1183 104.277 70.8ZM98.046 55.2C98.3765 55.2 98.6934 55.3264 98.9271 55.5515C99.1608 55.7765 99.2921 56.0817 99.2921 56.4V61.2C99.2921 61.5183 99.1608 61.8235 98.9271 62.0485C98.6934 62.2736 98.3765 62.4 98.046 62.4C97.7155 62.4 97.3985 62.2736 97.1648 62.0485C96.9311 61.8235 96.7998 61.5183 96.7998 61.2V56.4C96.7998 56.0817 96.9311 55.7765 97.1648 55.5515C97.3985 55.3264 97.7155 55.2 98.046 55.2ZM98.046 45.6C98.3765 45.6 98.6934 45.7264 98.9271 45.9515C99.1608 46.1765 99.2921 46.4817 99.2921 46.8V51.6C99.2921 51.9183 99.1608 52.2235 98.9271 52.4485C98.6934 52.6736 98.3765 52.8 98.046 52.8C97.7155 52.8 97.3985 52.6736 97.1648 52.4485C96.9311 52.2235 96.7998 51.9183 96.7998 51.6V46.8C96.7998 46.4817 96.9311 46.1765 97.1648 45.9515C97.3985 45.7264 97.7155 45.6 98.046 45.6ZM103.031 38.4H101.784C100.411 38.4 99.2921 39.4776 99.2921 40.8V42C99.2921 42.3183 99.1608 42.6235 98.9271 42.8485C98.6934 43.0736 98.3765 43.2 98.046 43.2C97.7155 43.2 97.3985 43.0736 97.1648 42.8485C96.9311 42.6235 96.7998 42.3183 96.7998 42V40.8C96.7998 38.1528 99.0354 36 101.784 36H103.031C103.361 36 103.678 36.1264 103.912 36.3515C104.145 36.5765 104.277 36.8817 104.277 37.2C104.277 37.5183 104.145 37.8235 103.912 38.0485C103.678 38.2736 103.361 38.4 103.031 38.4ZM120.477 69.6H121.723C123.096 69.6 124.215 68.5224 124.215 67.2V66C124.215 65.6817 124.346 65.3765 124.58 65.1515C124.814 64.9264 125.131 64.8 125.461 64.8C125.792 64.8 126.109 64.9264 126.343 65.1515C126.576 65.3765 126.707 65.6817 126.707 66V67.2C126.707 69.8472 124.472 72 121.723 72H120.477C120.146 72 119.829 71.8736 119.596 71.6485C119.362 71.4235 119.231 71.1183 119.231 70.8C119.231 70.4817 119.362 70.1765 119.596 69.9515C119.829 69.7264 120.146 69.6 120.477 69.6ZM108.015 69.6H115.492C115.823 69.6 116.14 69.7264 116.373 69.9515C116.607 70.1765 116.738 70.4817 116.738 70.8C116.738 71.1183 116.607 71.4235 116.373 71.6485C116.14 71.8736 115.823 72 115.492 72H108.015C107.685 72 107.368 71.8736 107.134 71.6485C106.9 71.4235 106.769 71.1183 106.769 70.8C106.769 70.4817 106.9 70.1765 107.134 69.9515C107.368 69.7264 107.685 69.6 108.015 69.6ZM129.2 57.6V40.8C129.2 38.1528 126.964 36 124.215 36H111.754C109.005 36 106.769 38.1528 106.769 40.8L106.769 57.6C106.769 60.2472 109.005 62.4 111.754 62.4L124.215 62.4C126.964 62.4 129.2 60.2472 129.2 57.6ZM126.707 57.6C126.707 58.9224 125.588 60 124.215 60L111.754 60C110.38 60 109.261 58.9224 109.261 57.6L109.261 40.8C109.261 39.4776 110.38 38.4 111.754 38.4H124.215C125.588 38.4 126.707 39.4776 126.707 40.8V57.6ZM122.969 55.2L113 55.2C112.669 55.2 112.352 55.0736 112.119 54.8485C111.885 54.6235 111.754 54.3183 111.754 54C111.754 53.6817 111.885 53.3765 112.119 53.1515C112.352 52.9264 112.669 52.8 113 52.8L122.969 52.8C123.3 52.8 123.616 52.9264 123.85 53.1515C124.084 53.3765 124.215 53.6817 124.215 54C124.215 54.3183 124.084 54.6235 123.85 54.8485C123.616 55.0736 123.3 55.2 122.969 55.2Z" fill="#54B375" stroke="#54B275" stroke-width="0.75"/>
</g>
<defs>
<filter id="filter0_d_11516_12132" x="8.7002" y="21.9995" width="96.6045" height="96.6042" filterUnits="userSpaceOnUse" color-interpolation-filters="sRGB">
<feFlood flood-opacity="0" result="BackgroundImageFix"/>
<feColorMatrix in="SourceAlpha" type="matrix" values="0 0 0 0 0 0 0 0 0 0 0 0 0 0 0 0 0 0 127 0" result="hardAlpha"/>
<feOffset dy="2"/>
<feGaussianBlur stdDeviation="6"/>
<feComposite in2="hardAlpha" operator="out"/>
<feColorMatrix type="matrix" values="0 0 0 0 0 0 0 0 0 0.20024 0 0 0 0 0.706731 0 0 0 0.13 0"/>
<feBlend mode="normal" in2="BackgroundImageFix" result="effect1_dropShadow_11516_12132"/>
<feBlend mode="normal" in="SourceGraphic" in2="effect1_dropShadow_11516_12132" result="shape"/>
</filter>
<filter id="filter1_d_11516_12132" x="121" y="21.9995" width="96.6045" height="96.6042" filterUnits="userSpaceOnUse" color-interpolation-filters="sRGB">
<feFlood flood-opacity="0" result="BackgroundImageFix"/>
<feColorMatrix in="SourceAlpha" type="matrix" values="0 0 0 0 0 0 0 0 0 0 0 0 0 0 0 0 0 0 127 0" result="hardAlpha"/>
<feOffset dy="2"/>
<feGaussianBlur stdDeviation="6"/>
<feComposite in2="hardAlpha" operator="out"/>
<feColorMatrix type="matrix" values="0 0 0 0 0.361378 0 0 0 0 0 0 0 0 0 0.528846 0 0 0 0.13 0"/>
<feBlend mode="normal" in2="BackgroundImageFix" result="effect1_dropShadow_11516_12132"/>
<feBlend mode="normal" in="SourceGraphic" in2="effect1_dropShadow_11516_12132" result="shape"/>
</filter>
<filter id="filter2_d_11516_12132" x="57" y="0" width="112" height="112" filterUnits="userSpaceOnUse" color-interpolation-filters="sRGB">
<feFlood flood-opacity="0" result="BackgroundImageFix"/>
<feColorMatrix in="SourceAlpha" type="matrix" values="0 0 0 0 0 0 0 0 0 0 0 0 0 0 0 0 0 0 127 0" result="hardAlpha"/>
<feOffset dy="2"/>
<feGaussianBlur stdDeviation="10"/>
<feComposite in2="hardAlpha" operator="out"/>
<feColorMatrix type="matrix" values="0 0 0 0 0 0 0 0 0 0.600962 0 0 0 0 0.206581 0 0 0 0.13 0"/>
<feBlend mode="normal" in2="BackgroundImageFix" result="effect1_dropShadow_11516_12132"/>
<feBlend mode="normal" in="SourceGraphic" in2="effect1_dropShadow_11516_12132" result="shape"/>
</filter>
</defs>
</svg>
