<svg width="80" height="80" viewBox="0 0 80 80" fill="none" xmlns="http://www.w3.org/2000/svg">
<path d="M16.1114 44.4448V28.7779C16.1114 26.8931 16.105 25.7191 16.2969 24.7085C16.6907 22.6235 17.703 20.7053 19.2031 19.2046C20.7034 17.7039 22.6211 16.6899 24.7061 16.2954V16.2964C25.7186 16.1044 26.8945 16.1109 28.7783 16.1109C29.6056 16.1109 30.1254 16.1095 30.6319 16.1558H30.6367C32.7492 16.3542 34.7524 17.1855 36.3858 18.5396C36.7808 18.8661 37.1477 19.2351 37.7344 19.8218L38.9571 21.0435C40.8371 22.9235 41.559 23.625 42.3916 24.0874L42.3946 24.0884C42.8778 24.3577 43.3901 24.5709 43.9219 24.7232H43.9229C44.8429 24.9848 45.8512 25.0005 48.5069 25.0005H49.3379C52.2186 25.0005 54.5368 24.9971 56.3653 25.2271C58.235 25.4623 59.8242 25.9643 61.1289 27.1392H61.128C61.3519 27.3376 61.5638 27.5486 61.7617 27.773H61.7608C62.928 29.0755 63.4276 30.6608 63.6621 32.5249C63.8921 34.3533 63.8897 36.6707 63.8897 39.5513V44.4448C63.8897 48.5876 63.8928 51.863 63.5489 54.4204C63.1984 57.0256 62.4597 59.134 60.7959 60.7964C59.1328 62.4582 57.0251 63.1967 54.4199 63.5474C51.8628 63.8917 48.5883 63.8892 44.4453 63.8892H35.5557C31.4133 63.8892 28.1384 63.8923 25.5811 63.5484C22.9757 63.198 20.8666 62.4593 19.2041 60.7954C17.5424 59.1323 16.8039 57.0246 16.4531 54.4195C16.1089 51.8623 16.1114 48.5878 16.1114 44.4448ZM53.334 33.8892C54.2543 33.8892 55.0008 34.635 55.001 35.5552C55.001 36.4756 54.2544 37.2221 53.334 37.2222H42.2227C41.3023 37.2221 40.5557 36.4756 40.5557 35.5552C40.5559 34.635 41.3024 33.8892 42.2227 33.8892H53.334ZM19.4453 44.4448C19.4453 48.6815 19.4495 51.6919 19.7569 53.9751C20.0578 56.2101 20.6212 57.4988 21.5615 58.44C22.5013 59.3805 23.7897 59.944 26.0254 60.2447C28.3089 60.5517 31.319 60.5552 35.5557 60.5552H44.4453C48.682 60.5552 51.6924 60.5511 53.9756 60.2437C56.2106 59.9427 57.4993 59.3794 58.4405 58.439C59.3809 57.4993 59.9444 56.2115 60.2451 53.9761C60.5523 51.6925 60.5557 48.6818 60.5557 44.4448V39.5513C60.5557 36.5834 60.5532 34.513 60.3555 32.9409C60.163 31.4104 59.8094 30.5859 59.2735 29.9907L59.2676 29.9849L59.2617 29.9781C59.1521 29.8539 59.0353 29.737 58.9112 29.6275L58.9053 29.6216L58.8985 29.6167C58.3034 29.0808 57.4796 28.7272 55.9492 28.5347C54.3772 28.3369 52.3061 28.3335 49.3379 28.3335H48.5069C46.0388 28.3335 44.4826 28.3484 43.0117 27.9302L43.0088 27.9292C42.2299 27.7065 41.4792 27.3949 40.7715 27.0005V26.9995C39.4365 26.2575 38.345 25.1462 36.5996 23.4009L35.378 22.1782C34.7469 21.5472 34.5086 21.3113 34.2637 21.1089L34.2608 21.107C33.1428 20.1795 31.7705 19.6109 30.3242 19.4751V19.4741C30.0055 19.4453 29.6621 19.4448 28.7783 19.4448C26.7429 19.4448 25.9544 19.4519 25.3272 19.5708H25.3262C23.8996 19.8407 22.587 20.5343 21.5606 21.5611C20.5342 22.5878 19.8408 23.9002 19.5713 25.3267V25.3296C19.4526 25.9541 19.4453 26.7397 19.4453 28.7779V44.4448Z" fill="url(#paint0_linear_5551_9638)"/>
<defs>
<linearGradient id="paint0_linear_5551_9638" x1="67" y1="64" x2="22.3964" y2="-3.43148" gradientUnits="userSpaceOnUse">
<stop stop-color="#2A74FF"/>
<stop offset="0.524038" stop-color="#7243FF"/>
<stop offset="0.927885" stop-color="#CA42ED"/>
</linearGradient>
</defs>
</svg>
