<svg width="80" height="80" viewBox="0 0 80 80" fill="none" xmlns="http://www.w3.org/2000/svg">
<path d="M38.334 36.6667C36.1238 36.6667 34.0042 35.7887 32.4414 34.2259C30.8786 32.6631 30.0007 30.5435 30.0007 28.3333C30.0007 26.1232 30.8786 24.0036 32.4414 22.4408C34.0042 20.878 36.1238 20 38.334 20C40.5441 20 42.6637 20.878 44.2265 22.4408C45.7893 24.0036 46.6673 26.1232 46.6673 28.3333C46.6673 30.5435 45.7893 32.6631 44.2265 34.2259C42.6637 35.7887 40.5441 36.6667 38.334 36.6667ZM38.334 23.3333C35.5673 23.3333 33.334 25.5667 33.334 28.3333C33.334 31.1 35.5673 33.3333 38.334 33.3333C41.1006 33.3333 43.334 31.1 43.334 28.3333C43.334 25.5667 41.1006 23.3333 38.334 23.3333Z" fill="url(#paint0_linear_5551_9644)"/>
<path d="M58.334 50C57.4006 50 56.6673 49.2667 56.6673 48.3333C56.6673 47.4 57.4006 46.6667 58.334 46.6667C59.2673 46.6667 60.0006 45.9333 60.0006 45C60.0006 42.7899 59.1227 40.6702 57.5599 39.1074C55.9971 37.5446 53.8774 36.6667 51.6673 36.6667H48.334C47.4006 36.6667 46.6673 35.9333 46.6673 35C46.6673 34.0667 47.4006 33.3333 48.334 33.3333C51.1006 33.3333 53.334 31.1 53.334 28.3333C53.334 25.5667 51.1006 23.3333 48.334 23.3333C47.4006 23.3333 46.6673 22.6 46.6673 21.6667C46.6673 20.7333 47.4006 20 48.334 20C50.5441 20 52.6637 20.878 54.2265 22.4408C55.7893 24.0036 56.6673 26.1232 56.6673 28.3333C56.6673 30.4 55.934 32.2667 54.6673 33.7333C59.634 35.0667 63.334 39.6 63.334 45C63.334 47.7667 61.1006 50 58.334 50ZM18.334 50C15.5673 50 13.334 47.7667 13.334 45C13.334 39.6 17.0006 35.0667 22.0006 33.7333C20.7673 32.2667 20.0007 30.4 20.0007 28.3333C20.0007 26.1232 20.8786 24.0036 22.4414 22.4408C24.0042 20.878 26.1238 20 28.334 20C29.2673 20 30.0006 20.7333 30.0006 21.6667C30.0006 22.6 29.2673 23.3333 28.334 23.3333C25.5673 23.3333 23.334 25.5667 23.334 28.3333C23.334 31.1 25.5673 33.3333 28.334 33.3333C29.2673 33.3333 30.0006 34.0667 30.0006 35C30.0006 35.9333 29.2673 36.6667 28.334 36.6667H25.0007C22.7905 36.6667 20.6709 37.5446 19.1081 39.1074C17.5453 40.6702 16.6673 42.7899 16.6673 45C16.6673 45.9333 17.4007 46.6667 18.334 46.6667C19.2673 46.6667 20.0007 47.4 20.0007 48.3333C20.0007 49.2667 19.2673 50 18.334 50ZM48.334 60H28.334C25.5673 60 23.334 57.7667 23.334 55V51.6667C23.334 45.2333 28.5673 40 35.0006 40H41.6673C48.1006 40 53.334 45.2333 53.334 51.6667V55C53.334 57.7667 51.1006 60 48.334 60ZM35.0006 43.3333C32.7905 43.3333 30.6709 44.2113 29.1081 45.7741C27.5453 47.3369 26.6673 49.4565 26.6673 51.6667V55C26.6673 55.9333 27.4006 56.6667 28.334 56.6667H48.334C49.2673 56.6667 50.0006 55.9333 50.0006 55V51.6667C50.0006 49.4565 49.1227 47.3369 47.5599 45.7741C45.9971 44.2113 43.8775 43.3333 41.6673 43.3333H35.0006Z" fill="url(#paint1_linear_5551_9644)"/>
<defs>
<linearGradient id="paint0_linear_5551_9644" x1="37.145" y1="60.0326" x2="27.1173" y2="14.7336" gradientUnits="userSpaceOnUse">
<stop stop-color="#2A74FF"/>
<stop offset="0.524038" stop-color="#7243FF"/>
<stop offset="0.927885" stop-color="#CA42ED"/>
</linearGradient>
<linearGradient id="paint1_linear_5551_9644" x1="37.145" y1="60.0326" x2="27.1173" y2="14.7336" gradientUnits="userSpaceOnUse">
<stop stop-color="#2A74FF"/>
<stop offset="0.524038" stop-color="#7243FF"/>
<stop offset="0.927885" stop-color="#CA42ED"/>
</linearGradient>
</defs>
</svg>
