<svg width="20" height="19" viewBox="0 0 20 19" fill="none" xmlns="http://www.w3.org/2000/svg">
<path d="M18.0362 12.3522C16.8771 12.5795 15.682 12.5472 14.5369 12.2578C13.3917 11.9684 12.3249 11.4289 11.4129 10.6783C10.501 9.92761 9.76656 8.98432 9.26243 7.91614C8.7583 6.84796 8.49696 5.68141 8.49717 4.50024C8.49717 3.04324 8.81717 1.67724 9.49717 0.500244C7.84065 0.500766 6.21642 0.958458 4.80335 1.82291C3.39029 2.68736 2.24321 3.92503 1.48846 5.39962C0.733709 6.8742 0.400569 8.52847 0.52573 10.1803C0.65089 11.832 1.2295 13.4172 2.19782 14.7612C3.16614 16.1053 4.48662 17.156 6.01381 17.7976C7.541 18.4393 9.21565 18.647 10.8533 18.3979C12.491 18.1488 14.0282 17.4526 15.2955 16.3859C16.5629 15.3192 17.5112 13.9234 18.0362 12.3522ZM14.1222 1.50024L14.1662 1.58024L14.2472 1.62524L14.1672 1.66924L14.1222 1.75024L14.0782 1.67024L13.9972 1.62524L14.0772 1.58124L14.1222 1.50024ZM17.9972 6.00024L18.1742 6.32324L18.4972 6.50024L18.1742 6.67724L17.9972 7.00024L17.8202 6.67724L17.4972 6.50024L17.8202 6.32324L17.9972 6.00024Z" stroke="#164DB3"/>
</svg>
