<svg width="18" height="20" viewBox="0 0 18 20" fill="none" xmlns="http://www.w3.org/2000/svg">
<path d="M6.2705 17.4006C6.3734 17.7468 6.58706 18.0507 6.87951 18.2669C7.17196 18.4831 7.52745 18.6 7.89277 18.6C8.2581 18.6 8.61359 18.4831 8.90604 18.2669C9.19848 18.0507 9.41215 17.7468 9.51505 17.4006M7.89075 2.40004V0.599976M13.9853 9.56911C14.1384 14.1741 15.1819 15.0005 15.1819 15.0005H0.599609C0.599609 15.0005 1.8148 13.4677 1.8148 8.40027C1.81571 7.46026 2.04004 6.53359 2.46974 5.69481C2.89944 4.85603 3.52251 4.12857 4.28882 3.57096C5.05513 3.01335 5.94329 2.64116 6.88182 2.48434C7.82035 2.32752 8.78305 2.39045 9.69247 2.66805M11.7389 4.66173C11.7389 5.29827 11.9949 5.90874 12.4507 6.35885C12.9065 6.80895 13.5247 7.06182 14.1692 7.06182C14.8138 7.06182 15.432 6.80895 15.8878 6.35885C16.3436 5.90874 16.5996 5.29827 16.5996 4.66173C16.5996 4.02518 16.3436 3.41471 15.8878 2.96461C15.432 2.5145 14.8138 2.26164 14.1692 2.26164C13.5247 2.26164 12.9065 2.5145 12.4507 2.96461C11.9949 3.41471 11.7389 4.02518 11.7389 4.66173Z" stroke="#64748B" stroke-width="1.2" stroke-linecap="round" stroke-linejoin="round"/>
</svg>
