<svg width="35" height="35" viewBox="0 0 35 35" fill="none" xmlns="http://www.w3.org/2000/svg">
<path d="M23.75 28.9004L31.25 28.9004C32.2048 28.9004 33.1208 29.279 33.7959 29.9541C34.471 30.6292 34.8496 31.5452 34.8496 32.5L34.8496 34.8496L32.6504 34.8496L32.6504 32.5C32.6504 32.1287 32.5028 31.7723 32.2402 31.5098C31.9777 31.2472 31.6213 31.0996 31.25 31.0996L23.75 31.0996C23.3787 31.0996 23.0223 31.2472 22.7598 31.5098C22.4972 31.7723 22.3496 32.1287 22.3496 32.5L22.3496 34.8496L20.1504 34.8496L20.1504 32.5C20.1504 31.5452 20.529 30.6292 21.2041 29.9541C21.8792 29.279 22.7952 28.9004 23.75 28.9004ZM4.84961 22.6504L4.84961 23.75C4.84961 25.4474 5.52438 27.0752 6.72461 28.2754C7.92484 29.4756 9.55261 30.1504 11.25 30.1504L14.8496 30.1504L14.8496 32.3496L11.25 32.3496C8.96914 32.3496 6.78176 31.4439 5.16895 29.8311C3.55613 28.2182 2.65039 26.0309 2.65039 23.75L2.65039 22.6504L4.84961 22.6504ZM27.5 17.6504C28.4592 17.6504 29.3968 17.9348 30.1943 18.4678C30.9917 19.0006 31.6134 19.7576 31.9805 20.6436C32.3476 21.5298 32.444 22.5055 32.2568 23.4463C32.0697 24.3871 31.6079 25.2514 30.9297 25.9297C30.2514 26.608 29.3871 27.0697 28.4463 27.2568C27.5055 27.444 26.5298 27.3476 25.6436 26.9805C24.7576 26.6134 24.0006 25.9917 23.4678 25.1943C22.9348 24.3968 22.6504 23.4592 22.6504 22.5C22.6504 21.2137 23.1608 19.9799 24.0703 19.0703C24.9799 18.1608 26.2137 17.6504 27.5 17.6504ZM27.5 19.8496C26.9759 19.8496 26.4631 20.0057 26.0273 20.2969C25.5917 20.588 25.2523 21.0023 25.0518 21.4863C24.8513 21.9704 24.7992 22.5028 24.9014 23.0166C25.0036 23.5307 25.2554 24.0034 25.626 24.374C25.9966 24.7446 26.4693 24.9964 26.9834 25.0986C27.4972 25.2008 28.0296 25.1487 28.5137 24.9482C28.9977 24.7477 29.412 24.4083 29.7031 23.9727C29.9943 23.5369 30.1504 23.0241 30.1504 22.5C30.1504 21.7972 29.871 21.1229 29.374 20.626C28.8771 20.129 28.2028 19.8496 27.5 19.8496ZM3.75 11.4004L11.25 11.4004C12.2048 11.4004 13.1208 11.779 13.7959 12.4541C14.471 13.1292 14.8496 14.0452 14.8496 15L14.8496 17.3496L12.6504 17.3496L12.6504 15C12.6504 14.6287 12.5028 14.2723 12.2402 14.0098C11.9777 13.7472 11.6213 13.5996 11.25 13.5996L3.75 13.5996C3.3787 13.5996 3.02232 13.7472 2.75977 14.0098C2.49721 14.2723 2.34961 14.6287 2.34961 15L2.34961 17.3496L0.150391 17.3496L0.150391 15C0.150391 14.0452 0.528971 13.1292 1.2041 12.4541C1.87923 11.779 2.79522 11.4004 3.75 11.4004ZM21.25 2.65039C23.5309 2.65039 25.7182 3.55613 27.3311 5.16895C28.9439 6.78176 29.8496 8.96914 29.8496 11.25L29.8496 12.3496L27.6504 12.3496L27.6504 11.25C27.6504 10.4096 27.4847 9.57725 27.1631 8.80078C26.8415 8.0243 26.3697 7.3189 25.7754 6.72461C25.1811 6.13032 24.4757 5.65854 23.6992 5.33691C22.9228 5.0153 22.0904 4.84961 21.25 4.84961L17.6504 4.84961L17.6504 2.65039L21.25 2.65039ZM5.64355 0.519531C6.52978 0.152446 7.50548 0.0560258 8.44629 0.243164C9.38706 0.430314 10.2514 0.89205 10.9297 1.57031C11.6079 2.24857 12.0697 3.11294 12.2568 4.05371C12.444 4.99452 12.3476 5.97022 11.9805 6.85645C11.6134 7.74243 10.9917 8.4994 10.1943 9.03223C9.39676 9.56515 8.45924 9.84961 7.5 9.84961C6.2137 9.84961 4.97986 9.33924 4.07031 8.42969C3.16076 7.52014 2.65039 6.2863 2.65039 5C2.65039 4.04076 2.93485 3.10324 3.46777 2.30566C4.0006 1.50826 4.75757 0.886633 5.64355 0.519531ZM7.5 2.34961C6.79718 2.34961 6.12295 2.62901 5.62598 3.12598C5.12901 3.62295 4.84961 4.29718 4.84961 5C4.84961 5.52412 5.00569 6.03687 5.29687 6.47266C5.58805 6.90826 6.00225 7.24773 6.48633 7.44824C6.97037 7.64865 7.50277 7.70078 8.0166 7.59863C8.53065 7.49638 9.00341 7.24463 9.37402 6.87402C9.74463 6.50341 9.99638 6.03065 10.0986 5.5166C10.2008 5.00277 10.1487 4.47037 9.94824 3.98633C9.74773 3.50225 9.40826 3.08805 8.97266 2.79688C8.53687 2.50569 8.02412 2.34961 7.5 2.34961Z" fill="white" stroke="#5494FF" stroke-width="0.3"/>
</svg>
