<svg width="80" height="80" viewBox="0 0 80 80" fill="none" xmlns="http://www.w3.org/2000/svg">
<path d="M40.416 25.7002C40.8948 25.5027 41.4148 25.432 41.9264 25.4951L42.1445 25.5293L42.361 25.5814C42.7868 25.6995 43.1816 25.91 43.5166 26.1983L43.6793 26.3496L53.4661 36.1413C53.8107 36.4858 54.0658 36.9084 54.2099 37.3718L54.2652 37.5736L54.3059 37.777C54.3846 38.2561 54.3461 38.7484 54.192 39.2109L49.9586 51.9111C49.8066 52.3683 49.5459 52.7817 49.2001 53.1172C48.9404 53.3691 48.6382 53.5726 48.3082 53.7162L47.968 53.8399L22.0159 61.5531C21.4899 61.7093 20.9305 61.7184 20.3997 61.5791C19.8691 61.4398 19.3863 61.158 19.0048 60.7637C18.6235 60.3694 18.3583 59.8776 18.2366 59.3428C18.115 58.8077 18.1427 58.2488 18.3164 57.7282L26.7425 32.4531L26.8596 32.1537C26.9932 31.8615 27.1736 31.5922 27.3935 31.3561C27.6867 31.0413 28.0442 30.7931 28.4417 30.6286L28.4449 30.627L40.416 25.7002ZM29.8561 33.6494L22.9013 54.5137L33.6223 43.7943C34.273 43.1436 35.3282 43.144 35.9791 43.7943C36.63 44.4451 36.63 45.5002 35.9791 46.1511L24.9147 57.2139L46.8499 50.6937L50.9645 38.3516L41.4804 28.8643L29.8561 33.6494Z" fill="url(#paint0_linear_5551_9631)"/>
<path d="M37.1561 37.6156C37.8126 37.6154 38.4636 37.7438 39.0702 37.9948C39.6768 38.2459 40.2285 38.6146 40.6929 39.0788C41.6307 40.0162 42.1573 41.2879 42.1577 42.6139C42.158 43.9401 41.632 45.2128 40.6945 46.1507C39.757 47.0885 38.4854 47.6152 37.1593 47.6156C35.8332 47.6159 34.5605 47.0899 33.6226 46.1523C33.1582 45.6882 32.79 45.1362 32.5386 44.5296C32.2874 43.9233 32.1579 43.2735 32.1577 42.6172C32.1576 41.9605 32.2874 41.3098 32.5386 40.7031C32.7897 40.0965 33.1568 39.5447 33.6209 39.0804C34.0851 38.616 34.6371 38.2478 35.2437 37.9964C35.85 37.7451 36.4998 37.6158 37.1561 37.6156ZM37.1577 40.9489C36.9388 40.9489 36.7219 40.992 36.5197 41.0758C36.3176 41.1596 36.134 41.2824 35.9793 41.4372C35.8247 41.5919 35.7017 41.7755 35.618 41.9775C35.5343 42.1797 35.4911 42.3968 35.4911 42.6156C35.4911 42.8344 35.5342 43.0514 35.618 43.2536C35.7018 43.4556 35.8245 43.6396 35.9791 43.7943C36.2916 44.1067 36.7159 44.2821 37.1577 44.2822C37.5998 44.2821 38.0252 44.1066 38.3377 43.7939C38.6499 43.4814 38.8244 43.0573 38.8244 42.6156C38.8243 42.1735 38.6487 41.7497 38.3361 41.4372C38.1814 41.2825 37.9979 41.1596 37.7957 41.0758C37.5935 40.9921 37.3766 40.9489 37.1577 40.9489ZM58.7918 28.4733C58.7918 27.8288 58.5668 27.2081 58.1619 26.7139L57.978 26.5088L53.2661 21.7936C53.0085 21.5363 52.7024 21.3308 52.3661 21.1914C52.0292 21.0518 51.6678 20.9799 51.3032 20.9798C50.9383 20.9798 50.5759 21.0517 50.2388 21.1914C49.9018 21.3311 49.5949 21.5357 49.3371 21.7936L43.0529 28.0811C42.4021 28.7315 41.3469 28.7316 40.6961 28.0811C40.0452 27.4303 40.0455 26.3753 40.6961 25.7243L46.9803 19.4368C47.5477 18.8693 48.2214 18.4192 48.9627 18.112C49.7043 17.8047 50.5005 17.6465 51.3032 17.6465C52.1057 17.6466 52.9007 17.8048 53.6421 18.112C54.3834 18.4192 55.0572 18.8693 55.6245 19.4368L60.3348 24.152C61.4805 25.298 62.1252 26.8529 62.1252 28.4733C62.1252 30.0938 61.4805 31.6486 60.3348 32.7946L54.0506 39.0804C53.3998 39.7312 52.3448 39.7311 51.6939 39.0804C51.0433 38.4296 51.0432 37.3745 51.6939 36.7236L57.978 30.4378C58.4988 29.9169 58.7918 29.2099 58.7918 28.4733Z" fill="url(#paint1_linear_5551_9631)"/>
<defs>
<linearGradient id="paint0_linear_5551_9631" x1="64.168" y1="17.5" x2="19.168" y2="65.8333" gradientUnits="userSpaceOnUse">
<stop stop-color="#2A74FF"/>
<stop offset="0.524038" stop-color="#7243FF"/>
<stop offset="0.927885" stop-color="#CA42ED"/>
</linearGradient>
<linearGradient id="paint1_linear_5551_9631" x1="64.168" y1="17.5" x2="19.168" y2="65.8333" gradientUnits="userSpaceOnUse">
<stop stop-color="#2A74FF"/>
<stop offset="0.524038" stop-color="#7243FF"/>
<stop offset="0.927885" stop-color="#CA42ED"/>
</linearGradient>
</defs>
</svg>
