<svg width="20" height="20" viewBox="0 0 20 20" fill="none" xmlns="http://www.w3.org/2000/svg">
<path d="M4.02273 9.75H0.75M18.75 9.75H15.4773M5.7 5.7L3.38618 3.38618M16.1138 16.1138L13.8 13.8M5.7 13.8L3.38618 16.1138M16.1138 3.38618L13.8 5.7M9.75 15.4773V18.75M9.75 0.75V4.02273M13.0227 9.75C13.0227 10.618 12.6779 11.4504 12.0642 12.0642C11.4504 12.6779 10.618 13.0227 9.75 13.0227C8.88202 13.0227 8.04959 12.6779 7.43583 12.0642C6.82208 11.4504 6.47727 10.618 6.47727 9.75C6.47727 8.88202 6.82208 8.04959 7.43583 7.43583C8.04959 6.82208 8.88202 6.47727 9.75 6.47727C10.618 6.47727 11.4504 6.82208 12.0642 7.43583C12.6779 8.04959 13.0227 8.88202 13.0227 9.75Z" stroke="#FFC62B" stroke-width="1.5" stroke-miterlimit="10" stroke-linecap="round" stroke-linejoin="round"/>
</svg>
