<svg width="72" height="72" viewBox="0 0 72 72" fill="none" xmlns="http://www.w3.org/2000/svg">
<rect width="72" height="72" rx="36" fill="#FEF2F2"/>
<path d="M26.6247 47H46.3753C48.3949 47 49.6539 44.8398 48.6441 43.1194L38.7688 26.2903C37.759 24.5699 35.241 24.5699 34.2312 26.2903L24.3559 43.1194C23.3461 44.8398 24.6051 47 26.6247 47ZM36.5 37.9452C35.7787 37.9452 35.1885 37.3631 35.1885 36.6516V34.0645C35.1885 33.3531 35.7787 32.771 36.5 32.771C37.2213 32.771 37.8115 33.3531 37.8115 34.0645V36.6516C37.8115 37.3631 37.2213 37.9452 36.5 37.9452ZM37.8115 43.1194H35.1885V40.5323H37.8115V43.1194Z" fill="#EF4444"/>
</svg>
