<svg width="24" height="24" viewBox="0 0 24 24" fill="none" xmlns="http://www.w3.org/2000/svg">
<path d="M11.9996 15.05C13.4055 15.05 14.5452 13.9083 14.5452 12.5C14.5452 11.0917 13.4055 9.95 11.9996 9.95C10.5937 9.95 9.45406 11.0917 9.45406 12.5C9.45406 13.9083 10.5937 15.05 11.9996 15.05Z" stroke="#52525B"/>
<path d="M13.4976 4.1292C13.1862 4 12.7908 4 12 4C11.2092 4 10.8138 4 10.5024 4.1292C10.2963 4.21464 10.1091 4.33991 9.95144 4.49786C9.79376 4.65582 9.6687 4.84335 9.58342 5.04975C9.50535 5.2393 9.47396 5.46115 9.46208 5.7833C9.45655 6.01614 9.39216 6.24377 9.27493 6.4449C9.1577 6.64603 8.99145 6.81409 8.79175 6.93335C8.58879 7.04706 8.36035 7.10732 8.12781 7.10851C7.89527 7.1097 7.66623 7.05177 7.46212 6.94015C7.17701 6.78885 6.97082 6.70555 6.76633 6.67835C6.32028 6.61959 5.86919 6.74066 5.51222 7.01495C5.24578 7.2215 5.04723 7.56405 4.65182 8.25C4.25641 8.93595 4.05786 9.2785 4.01458 9.61425C3.98542 9.83563 4.00009 10.0606 4.05774 10.2763C4.1154 10.492 4.21491 10.6942 4.3506 10.8714C4.47618 11.0346 4.65182 11.1715 4.92419 11.3432C5.32554 11.5956 5.58349 12.0257 5.58349 12.5C5.58349 12.9743 5.32554 13.4044 4.92419 13.656C4.65182 13.8285 4.47533 13.9654 4.3506 14.1286C4.21491 14.3058 4.1154 14.508 4.05774 14.7237C4.00009 14.9394 3.98542 15.1644 4.01458 15.3858C4.0587 15.7207 4.25641 16.0641 4.65097 16.75C5.04723 17.436 5.24494 17.7785 5.51222 17.985C5.68908 18.121 5.89094 18.2207 6.10627 18.2784C6.3216 18.3362 6.54618 18.3509 6.76718 18.3217C6.97082 18.2945 7.17701 18.2112 7.46212 18.0599C7.66623 17.9482 7.89527 17.8903 8.12781 17.8915C8.36035 17.8927 8.58879 17.9529 8.79175 18.0667C9.20158 18.3047 9.44511 18.7424 9.46208 19.2167C9.47396 19.5397 9.5045 19.7607 9.58342 19.9502C9.6687 20.1566 9.79376 20.3442 9.95144 20.5021C10.1091 20.6601 10.2963 20.7854 10.5024 20.8708C10.8138 21 11.2092 21 12 21C12.7908 21 13.1862 21 13.4976 20.8708C13.7037 20.7854 13.8909 20.6601 14.0486 20.5021C14.2062 20.3442 14.3313 20.1566 14.4166 19.9502C14.4946 19.7607 14.526 19.5397 14.5379 19.2167C14.5549 18.7424 14.7984 18.3038 15.2083 18.0667C15.4112 17.9529 15.6397 17.8927 15.8722 17.8915C16.1047 17.8903 16.3338 17.9482 16.5379 18.0599C16.823 18.2112 17.0292 18.2945 17.2328 18.3217C17.4538 18.3509 17.6784 18.3362 17.8937 18.2784C18.1091 18.2207 18.3109 18.121 18.4878 17.985C18.7551 17.7793 18.9528 17.436 19.3482 16.75C19.7436 16.0641 19.9421 15.7215 19.9854 15.3858C20.0146 15.1644 19.9999 14.9394 19.9423 14.7237C19.8846 14.508 19.7851 14.3058 19.6494 14.1286C19.5238 13.9654 19.3482 13.8286 19.0758 13.6569C18.8772 13.5356 18.7125 13.3659 18.5972 13.1636C18.4819 12.9613 18.4197 12.733 18.4165 12.5C18.4165 12.0257 18.6745 11.5956 19.0758 11.344C19.3482 11.1715 19.5247 11.0346 19.6494 10.8714C19.7851 10.6942 19.8846 10.492 19.9423 10.2763C19.9999 10.0606 20.0146 9.83563 19.9854 9.61425C19.9413 9.27935 19.7436 8.93595 19.349 8.25C18.9528 7.56405 18.7551 7.2215 18.4878 7.01495C18.3109 6.87903 18.1091 6.77934 17.8937 6.72159C17.6784 6.66383 17.4538 6.64914 17.2328 6.67835C17.0292 6.70555 16.823 6.78885 16.537 6.94015C16.333 7.05162 16.1041 7.10947 15.8718 7.10828C15.6394 7.10709 15.4111 7.0469 15.2083 6.93335C15.0085 6.81409 14.8423 6.64603 14.7251 6.4449C14.6078 6.24377 14.5434 6.01614 14.5379 5.7833C14.526 5.4603 14.4955 5.2393 14.4166 5.04975C14.3313 4.84335 14.2062 4.65582 14.0486 4.49786C13.8909 4.33991 13.7037 4.21464 13.4976 4.1292Z" stroke="#52525B"/>
</svg>
