<svg width="48" height="48" viewBox="0 0 48 48" fill="none" xmlns="http://www.w3.org/2000/svg">
<g clip-path="url(#clip0_11180_9613)">
<mask id="mask0_11180_9613" style="mask-type:luminance" maskUnits="userSpaceOnUse" x="9" y="10" width="32" height="28">
<path d="M14.3222 31.7922H20.3759C20.3759 30.6234 20.8299 29.5584 21.5867 28.8052C22.3181 28.0519 23.3523 27.5584 24.4874 27.5584C25.6225 27.5584 26.6566 28.026 27.4133 28.8052C28.1448 29.5584 28.6241 30.6234 28.6241 31.7922H34.6021L37.7551 22.7792C37.9064 22.8312 38.083 22.8571 38.2848 22.8571C39.2433 22.8571 40.0252 22.0519 40.0252 21.0649C40.0252 20.0779 39.2433 19.2727 38.2848 19.2727C37.3263 19.2727 36.5443 20.0779 36.5443 21.0649C36.5443 21.4545 36.6705 21.8182 36.8723 22.1039L35.0814 23.6364C32.559 25.7662 30.9951 24.7792 31.4744 21.4805L31.7518 19.6104C31.8527 19.6364 31.9536 19.6364 32.0545 19.6364C33.013 19.6364 33.795 18.8312 33.795 17.8442C33.795 16.8571 33.013 16.0519 32.0545 16.0519C31.096 16.0519 30.3141 16.8571 30.3141 17.8442C30.3141 18.4156 30.5663 18.9091 30.9699 19.2468L30.5411 19.9481C28.4223 23.2208 26.8584 21.974 26.2531 18.7273L25.1432 13.4545C25.7738 13.1948 26.2026 12.5455 26.2026 11.8182C26.1522 10.8052 25.3954 10 24.4117 10C23.4532 10 22.6713 10.8052 22.6713 11.7922C22.6713 12.6234 23.201 13.2987 23.9577 13.5065L23.2262 16.5195C22.6208 19.2727 21.8641 24.7792 18.4841 20.0779L17.9292 19.2987C18.358 18.987 18.6607 18.4416 18.6607 17.8442C18.6607 16.8571 17.8788 16.0519 16.9203 16.0519C15.9618 16.0519 15.1798 16.8571 15.1798 17.8442C15.1798 18.8312 15.9618 19.6364 16.9203 19.6364C17.0464 19.6364 17.1725 19.6104 17.2986 19.5844L17.4247 20.8052C17.6517 22.4675 17.9292 24.7013 16.0879 24.5974C15.1798 24.5455 14.8267 24.2338 14.1204 23.7143L12.1277 22.2597C12.3548 21.9481 12.4809 21.5844 12.4809 21.1688C12.4809 20.1818 11.6989 19.3766 10.7404 19.3766C9.78194 19.3766 9 20.1818 9 21.1688C9 22.1558 9.78194 22.961 10.7404 22.961C10.9675 22.961 11.1692 22.9091 11.371 22.8312L14.3222 31.7922ZM24.4117 10.8052C24.9414 10.8052 25.3702 11.2468 25.3702 11.7922C25.3702 12.3377 24.9414 12.7792 24.4117 12.7792C23.882 12.7792 23.4532 12.3377 23.4532 11.7922C23.4532 11.2468 23.882 10.8052 24.4117 10.8052ZM38.2343 20.026C38.8145 20.026 39.2937 20.5195 39.2937 21.0909C39.2937 21.6883 38.8145 22.1818 38.2343 22.1818C37.6542 22.1818 37.1749 21.6883 37.1749 21.0909C37.1749 20.4935 37.6542 20.026 38.2343 20.026ZM10.7152 20.026C11.2954 20.026 11.7746 20.5195 11.7746 21.0909C11.7746 21.6883 11.2954 22.1818 10.7152 22.1818C10.1351 22.1818 9.68104 21.6883 9.68104 21.0909C9.68104 20.4935 10.1351 20.026 10.7152 20.026ZM16.895 16.7532C17.4752 16.7532 17.9292 17.2468 17.9292 17.8182C17.9292 18.4156 17.45 18.9091 16.895 18.9091C16.3149 18.9091 15.8356 18.4156 15.8356 17.8182C15.8609 17.2468 16.3149 16.7532 16.895 16.7532ZM32.0041 16.7532C32.5842 16.7532 33.0635 17.2468 33.0635 17.8182C33.0635 18.4156 32.5842 18.9091 32.0041 18.9091C31.4239 18.9091 30.9699 18.4156 30.9699 17.8182C30.9699 17.2468 31.4239 16.7532 32.0041 16.7532ZM14.3222 34.2857H21.1831C21.3092 34.4675 21.4353 34.6234 21.5867 34.7792C22.3181 35.5325 23.3523 36.026 24.4874 36.026C25.6225 36.026 26.6566 35.5325 27.4133 34.7792C27.5647 34.6234 27.6908 34.4675 27.8169 34.2857H34.6273V38H14.3222V34.2857Z" fill="white"/>
</mask>
<g mask="url(#mask0_11180_9613)">
<mask id="mask1_11180_9613" style="mask-type:luminance" maskUnits="userSpaceOnUse" x="9" y="10" width="31" height="28">
<path d="M40 10H9V38H40V10Z" fill="white"/>
</mask>
<g mask="url(#mask1_11180_9613)">
<rect width="31.5167" height="28.4167" transform="matrix(1 0 0 -1 9 37.373)" fill="url(#paint0_linear_11180_9613)"/>
</g>
</g>
<path fill-rule="evenodd" clip-rule="evenodd" d="M24.4875 28.8574C26.0514 28.8574 27.3378 30.1561 27.3378 31.7925C27.3378 33.4289 26.0766 34.7276 24.4875 34.7276C22.8984 34.7276 21.6372 33.4289 21.6372 31.7925C21.6372 30.1561 22.9236 28.8574 24.4875 28.8574Z" fill="#1F6FEB"/>
</g>
<defs>
<linearGradient id="paint0_linear_11180_9613" x1="15.7583" y1="28.4167" x2="15.7583" y2="0" gradientUnits="userSpaceOnUse">
<stop stop-color="#2643FF"/>
<stop offset="1" stop-color="#1DFFFF"/>
</linearGradient>
<clipPath id="clip0_11180_9613">
<rect width="31" height="28" fill="white" transform="translate(9 10)"/>
</clipPath>
</defs>
</svg>
