<svg width="72" height="72" viewBox="0 0 72 72" fill="none" xmlns="http://www.w3.org/2000/svg">
<rect width="72" height="72" rx="36" fill="#1E293B"/>
<path d="M47.8667 41.0068C46.0445 41.0068 44.2816 40.7105 42.6371 40.1771C42.3794 40.0903 42.1026 40.0776 41.838 40.1405C41.5735 40.2034 41.3319 40.3392 41.1408 40.5327L38.8149 43.4512C34.6223 41.4512 30.6964 37.6734 28.6075 33.3327L31.4964 30.8734C31.8964 30.4586 32.0149 29.8808 31.8519 29.3623C31.3038 27.7179 31.0223 25.9549 31.0223 24.1327C31.0223 23.3327 30.3556 22.666 29.5556 22.666H24.4297C23.6297 22.666 22.6667 23.0216 22.6667 24.1327C22.6667 37.8956 34.1186 49.3327 47.8667 49.3327C48.9186 49.3327 49.3334 48.3993 49.3334 47.5845V42.4734C49.3334 41.6734 48.6667 41.0068 47.8667 41.0068Z" fill="#1F6FEB" stroke="#1F6FEB"/>
</svg>
