<svg width="72" height="72" viewBox="0 0 72 72" fill="none" xmlns="http://www.w3.org/2000/svg">
<rect width="72" height="72" rx="36" fill="#1E293B"/>
<path d="M22.6667 42.666V29.3327C22.6667 28.6254 22.9477 27.9472 23.4478 27.4471C23.9479 26.947 24.6262 26.666 25.3334 26.666H46.6667C47.374 26.666 48.0523 26.947 48.5524 27.4471C49.0525 27.9472 49.3334 28.6254 49.3334 29.3327V42.666C49.3334 43.3733 49.0525 44.0515 48.5524 44.5516C48.0523 45.0517 47.374 45.3327 46.6667 45.3327H25.3334C24.6262 45.3327 23.9479 45.0517 23.4478 44.5516C22.9477 44.0515 22.6667 43.3733 22.6667 42.666Z" fill="#1F6FEB"/>
<path d="M29.3335 32L36.0002 36.6667L42.6668 32" stroke="#1E293B" stroke-width="2" stroke-linecap="round" stroke-linejoin="round"/>
</svg>
