<svg width="72" height="72" viewBox="0 0 72 72" fill="none" xmlns="http://www.w3.org/2000/svg">
<rect width="72" height="72" rx="36" fill="#1E293B"/>
<path d="M40.6666 28.9824C40.6666 30.2153 40.1749 31.3976 39.2998 32.2694C38.4246 33.1411 37.2376 33.6309 35.9999 33.6309C34.7622 33.6309 33.5753 33.1411 32.7001 32.2694C31.8249 31.3976 31.3333 30.2153 31.3333 28.9824C31.3333 27.7496 31.8249 26.5672 32.7001 25.6955C33.5753 24.8237 34.7622 24.334 35.9999 24.334C37.2376 24.334 38.4246 24.8237 39.2998 25.6955C40.1749 26.5672 40.6666 27.7496 40.6666 28.9824ZM47.6666 47.6673C46.2083 33.8132 25.7916 33.084 24.3333 47.6673H47.6666Z" fill="#1F6FEB"/>
</svg>
