<svg width="72" height="72" viewBox="0 0 72 72" fill="none" xmlns="http://www.w3.org/2000/svg">
<rect width="72" height="72" rx="36" fill="#1E293B"/>
<path d="M22 30.5C22 29.3065 22.4741 28.1619 23.318 27.318C24.1619 26.4741 25.3065 26 26.5 26H45.5C46.6935 26 47.8381 26.4741 48.682 27.318C49.5259 28.1619 50 29.3065 50 30.5V41.5C50 42.6935 49.5259 43.8381 48.682 44.682C47.8381 45.5259 46.6935 46 45.5 46H26.5C25.3065 46 24.1619 45.5259 23.318 44.682C22.4741 43.8381 22 42.6935 22 41.5V30.5ZM27.707 33.293C27.5184 33.1108 27.2658 33.01 27.0036 33.0123C26.7414 33.0146 26.4906 33.1198 26.3052 33.3052C26.1198 33.4906 26.0146 33.7414 26.0123 34.0036C26.01 34.2658 26.1108 34.5184 26.293 34.707L27.586 36L26.293 37.293C26.1975 37.3852 26.1213 37.4956 26.0689 37.6176C26.0165 37.7396 25.9889 37.8708 25.9877 38.0036C25.9866 38.1364 26.0119 38.2681 26.0622 38.391C26.1125 38.5138 26.1867 38.6255 26.2806 38.7194C26.3745 38.8133 26.4861 38.8875 26.609 38.9378C26.7319 38.9881 26.8636 39.0134 26.9964 39.0123C27.1292 39.0111 27.2604 38.9835 27.3824 38.9311C27.5044 38.8787 27.6148 38.8025 27.707 38.707L29 37.414L30.293 38.707C30.4816 38.8892 30.7342 38.99 30.9964 38.9877C31.2586 38.9854 31.5094 38.8802 31.6948 38.6948C31.8802 38.5094 31.9854 38.2586 31.9877 37.9964C31.99 37.7342 31.8892 37.4816 31.707 37.293L30.414 36L31.707 34.707C31.8892 34.5184 31.99 34.2658 31.9877 34.0036C31.9854 33.7414 31.8802 33.4906 31.6948 33.3052C31.5094 33.1198 31.2586 33.0146 30.9964 33.0123C30.7342 33.01 30.4816 33.1108 30.293 33.293L29 34.586L27.707 33.293ZM33.793 33.293C33.6055 33.4805 33.5002 33.7348 33.5002 34C33.5002 34.2652 33.6055 34.5195 33.793 34.707L35.086 36L33.793 37.293C33.6108 37.4816 33.51 37.7342 33.5123 37.9964C33.5146 38.2586 33.6198 38.5094 33.8052 38.6948C33.9906 38.8802 34.2414 38.9854 34.5036 38.9877C34.7658 38.99 35.0184 38.8892 35.207 38.707L36.5 37.414L37.793 38.707C37.9816 38.8892 38.2342 38.99 38.4964 38.9877C38.7586 38.9854 39.0094 38.8802 39.1948 38.6948C39.3802 38.5094 39.4854 38.2586 39.4877 37.9964C39.49 37.7342 39.3892 37.4816 39.207 37.293L37.914 36L39.207 34.707C39.3892 34.5184 39.49 34.2658 39.4877 34.0036C39.4854 33.7414 39.3802 33.4906 39.1948 33.3052C39.0094 33.1198 38.7586 33.0146 38.4964 33.0123C38.2342 33.01 37.9816 33.1108 37.793 33.293L36.5 34.586L35.207 33.293C35.0195 33.1055 34.7652 33.0002 34.5 33.0002C34.2348 33.0002 33.9805 33.1055 33.793 33.293ZM42 37C41.7348 37 41.4804 37.1054 41.2929 37.2929C41.1054 37.4804 41 37.7348 41 38C41 38.2652 41.1054 38.5196 41.2929 38.7071C41.4804 38.8946 41.7348 39 42 39H45C45.2652 39 45.5196 38.8946 45.7071 38.7071C45.8946 38.5196 46 38.2652 46 38C46 37.7348 45.8946 37.4804 45.7071 37.2929C45.5196 37.1054 45.2652 37 45 37H42Z" fill="#1F6FEB"/>
</svg>
