<svg width="20" height="20" viewBox="0 0 20 20" fill="none" xmlns="http://www.w3.org/2000/svg">
<path d="M4.99931 5.83421V15.417C4.99921 15.6907 5.05304 15.9617 5.15772 16.2145C5.26239 16.4673 5.41587 16.6971 5.60938 16.8906C5.80288 17.0841 6.03262 17.2376 6.28547 17.3422C6.53831 17.4469 6.80931 17.5008 7.08296 17.5007H12.9166C13.469 17.5007 13.9988 17.2812 14.3894 16.8906C14.78 16.5 14.9994 15.9702 14.9994 15.4178V5.83345M3.33301 5.83421H16.6665M7.49954 5.83421V4.58372C7.49934 4.41948 7.53155 4.25681 7.59433 4.10505C7.65711 3.95328 7.74923 3.8154 7.8654 3.6993C7.98157 3.5832 8.11951 3.49117 8.27131 3.42849C8.42311 3.3658 8.5858 3.33368 8.75003 3.33399H11.2495C11.4137 3.33368 11.5764 3.3658 11.7282 3.42849C11.88 3.49117 12.018 3.5832 12.1341 3.6993C12.2503 3.8154 12.3424 3.95328 12.4052 4.10505C12.468 4.25681 12.5002 4.41948 12.5 4.58372V5.83421M8.33346 14.24V10.075M11.6668 14.24V10.075" stroke="#7F1D1D" stroke-linecap="round" stroke-linejoin="round"/>
</svg>
