<svg width="20" height="20" viewBox="0 0 20 20" fill="none" xmlns="http://www.w3.org/2000/svg">
<path d="M15.0096 4.99145C13.6878 3.66952 11.5489 3.66952 10.2286 4.99145L8.71461 6.50559L9.51145 7.3025L11.0254 5.78837C11.866 4.9477 13.2847 4.85864 14.2128 5.78837C15.1424 6.7181 15.0534 8.13536 14.2128 8.97602L12.6988 10.4902L13.4972 11.2886L15.0112 9.7745C16.3299 8.45256 16.3299 6.31339 15.0096 4.99145ZM8.9771 14.2138C8.13652 15.0544 6.71784 15.1435 5.78976 14.2138C4.86011 13.284 4.94917 11.8668 5.78976 11.0261L7.30375 9.51199L6.50535 8.71351L4.99136 10.2276C3.66955 11.5496 3.66955 13.6888 4.99136 15.0091C6.31317 16.3295 8.45213 16.3311 9.77237 15.0091L11.2864 13.495L10.4895 12.6981L8.9771 14.2138ZM6.06787 5.27272C6.04438 5.24945 6.01265 5.2364 5.97959 5.2364C5.94653 5.2364 5.91481 5.24945 5.89131 5.27272L5.27259 5.8915C5.24933 5.91499 5.23628 5.94672 5.23628 5.97978C5.23628 6.01285 5.24933 6.04457 5.27259 6.06807L13.9347 14.731C13.9831 14.7794 14.0628 14.7794 14.1112 14.731L14.7299 14.1122C14.7784 14.0638 14.7784 13.9841 14.7299 13.9356L6.06787 5.27272Z" fill="#64748B"/>
</svg>
