<svg width="72" height="72" viewBox="0 0 72 72" fill="none" xmlns="http://www.w3.org/2000/svg">
<rect width="72" height="72" rx="36" fill="#F8FAFC"/>
<path d="M22.667 42.666V29.3327C22.667 28.6254 22.9479 27.9472 23.448 27.4471C23.9481 26.947 24.6264 26.666 25.3337 26.666H46.667C47.3742 26.666 48.0525 26.947 48.5526 27.4471C49.0527 27.9472 49.3337 28.6254 49.3337 29.3327V42.666C49.3337 43.3733 49.0527 44.0515 48.5526 44.5516C48.0525 45.0517 47.3742 45.3327 46.667 45.3327H25.3337C24.6264 45.3327 23.9481 45.0517 23.448 44.5516C22.9479 44.0515 22.667 43.3733 22.667 42.666Z" fill="#1F6FEB"/>
<path d="M29.334 32L36.0007 36.6667L42.6673 32" stroke="#F8FAFC" stroke-width="2" stroke-linecap="round" stroke-linejoin="round"/>
</svg>
