<svg width="48" height="48" viewBox="0 0 48 48" fill="none" xmlns="http://www.w3.org/2000/svg">
<path d="M37.0733 21.389H35.9993V21.3337H23.9993V26.667H31.5347C30.4353 29.7717 27.4813 32.0003 23.9993 32.0003C19.5813 32.0003 15.9993 28.4183 15.9993 24.0003C15.9993 19.5823 19.5813 16.0003 23.9993 16.0003C26.0387 16.0003 27.894 16.7697 29.3067 18.0263L33.078 14.255C30.6967 12.0357 27.5113 10.667 23.9993 10.667C16.636 10.667 10.666 16.637 10.666 24.0003C10.666 31.3637 16.636 37.3337 23.9993 37.3337C31.3627 37.3337 37.3327 31.3637 37.3327 24.0003C37.3327 23.1063 37.2407 22.2337 37.0733 21.389Z" fill="#FFC107"/>
<path d="M12.2033 17.7943L16.584 21.007C17.7693 18.0723 20.64 16.0003 23.9993 16.0003C26.0387 16.0003 27.894 16.7697 29.3067 18.0263L33.078 14.255C30.6967 12.0357 27.5113 10.667 23.9993 10.667C18.878 10.667 14.4367 13.5583 12.2033 17.7943Z" fill="#FF3D00"/>
<path d="M23.9993 37.3337C27.4433 37.3337 30.5727 36.0157 32.9387 33.8723L28.812 30.3803C27.4734 31.3943 25.8093 32.0003 23.9993 32.0003C20.5313 32.0003 17.5867 29.789 16.4773 26.703L12.1293 30.053C14.336 34.371 18.8173 37.3337 23.9993 37.3337Z" fill="#4CAF50"/>
<path d="M37.0733 21.389H35.9993V21.3337H23.9993V26.667H31.5347C31.0067 28.1583 30.0473 29.4443 28.81 30.381L28.812 30.3803L32.9387 33.8723C32.6467 34.1377 37.3327 30.667 37.3327 24.0003C37.3327 23.1063 37.2407 22.2337 37.0733 21.389Z" fill="#1976D2"/>
</svg>
