<svg width="72" height="72" viewBox="0 0 72 72" fill="none" xmlns="http://www.w3.org/2000/svg">
<rect width="72" height="72" rx="36" fill="#F8FAFC"/>
<path d="M40.6663 28.9824C40.6663 30.2153 40.1747 31.3976 39.2995 32.2694C38.4243 33.1411 37.2374 33.6309 35.9997 33.6309C34.762 33.6309 33.575 33.1411 32.6998 32.2694C31.8247 31.3976 31.333 30.2153 31.333 28.9824C31.333 27.7496 31.8247 26.5672 32.6998 25.6955C33.575 24.8237 34.762 24.334 35.9997 24.334C37.2374 24.334 38.4243 24.8237 39.2995 25.6955C40.1747 26.5672 40.6663 27.7496 40.6663 28.9824ZM47.6663 47.6673C46.208 33.8132 25.7913 33.084 24.333 47.6673H47.6663Z" fill="#1F6FEB"/>
</svg>
