<svg width="24" height="24" viewBox="0 0 24 24" fill="none" xmlns="http://www.w3.org/2000/svg">
<path d="M13.6632 9.91706C13.5637 9.63748 13.3802 9.39546 13.1379 9.22411C12.8955 9.05277 12.6061 8.96048 12.3092 8.95988H11.1977C10.8806 8.95822 10.5742 9.07414 10.3376 9.28524C10.1011 9.49633 9.95126 9.7876 9.91712 10.1027C9.88297 10.4178 9.96694 10.7344 10.1528 10.9912C10.3386 11.248 10.6131 11.4269 10.9232 11.4931L12.6157 11.8622C12.9617 11.9379 13.2676 12.1388 13.4745 12.4262C13.6814 12.7137 13.7747 13.0674 13.7366 13.4194C13.6984 13.7715 13.5314 14.097 13.2677 14.3334C13.004 14.5699 12.6622 14.7006 12.308 14.7005H11.3516C10.7263 14.7005 10.1946 14.3019 9.99761 13.7446M11.8304 8.95988V7.5241M11.8304 16.1363V14.7017M5.84341 19.9958V16.92H8.9206M19.8628 10.5285C20.1896 12.2697 19.9287 14.07 19.1211 15.6469C18.3135 17.2239 17.0049 18.4881 15.4008 19.2413C13.7966 19.9944 11.9876 20.1939 10.2578 19.8082C8.52794 19.4226 6.97516 18.4738 5.84316 17.1107M4.13717 13.4715C3.8104 11.7303 4.07129 9.92998 4.87888 8.35306C5.68647 6.77614 6.99505 5.51188 8.59924 4.75873C10.2034 4.00557 12.0124 3.80615 13.7422 4.19176C15.4721 4.57737 17.0248 5.52619 18.1568 6.88929" stroke="#4E4E4E" stroke-linecap="round" stroke-linejoin="round"/>
</svg>
