<svg width="72" height="72" viewBox="0 0 72 72" fill="none" xmlns="http://www.w3.org/2000/svg">
<rect width="72" height="72" rx="36" fill="#F8FAFC"/>
<path d="M47.867 41.0068C46.0448 41.0068 44.2818 40.7105 42.6374 40.1771C42.3797 40.0903 42.1028 40.0776 41.8383 40.1405C41.5737 40.2034 41.3322 40.3392 41.1411 40.5327L38.8151 43.4512C34.6225 41.4512 30.6966 37.6734 28.6077 33.3327L31.4966 30.8734C31.8966 30.4586 32.0151 29.8808 31.8522 29.3623C31.304 27.7179 31.0225 25.9549 31.0225 24.1327C31.0225 23.3327 30.3559 22.666 29.5559 22.666H24.43C23.63 22.666 22.667 23.0216 22.667 24.1327C22.667 37.8956 34.1188 49.3327 47.867 49.3327C48.9188 49.3327 49.3337 48.3993 49.3337 47.5845V42.4734C49.3337 41.6734 48.667 41.0068 47.867 41.0068Z" fill="#1F6FEB" stroke="#1F6FEB"/>
</svg>
