<svg width="24" height="24" viewBox="0 0 24 24" fill="none" xmlns="http://www.w3.org/2000/svg">
<path d="M19 19C18.125 10.6875 5.875 10.25 5 19M14.8 7.78906C14.8 8.52877 14.505 9.23818 13.9799 9.76123C13.4548 10.2843 12.7426 10.5781 12 10.5781C11.2574 10.5781 10.5452 10.2843 10.0201 9.76123C9.495 9.23818 9.2 8.52877 9.2 7.78906C9.2 7.04936 9.495 6.33995 10.0201 5.8169C10.5452 5.29385 11.2574 5 12 5C12.7426 5 13.4548 5.29385 13.9799 5.8169C14.505 6.33995 14.8 7.04936 14.8 7.78906Z" stroke="#52525B" stroke-linecap="round" stroke-linejoin="round"/>
</svg>
