<svg width="16" height="18" viewBox="0 0 16 18" fill="none" xmlns="http://www.w3.org/2000/svg">
<path d="M7.23259 3.77485C7.31077 3.64071 7.42274 3.52941 7.55736 3.45205C7.69197 3.37469 7.84452 3.33398 7.99977 3.33398C8.15503 3.33398 8.30758 3.37469 8.44219 3.45205C8.57681 3.52941 8.68878 3.64071 8.76695 3.77485L9.84314 5.62177C9.90509 5.72837 9.98856 5.82089 10.0882 5.89346C10.1879 5.96602 10.3016 6.01703 10.4221 6.04325L12.5117 6.4955C12.6634 6.52848 12.8037 6.60064 12.9188 6.70479C13.0339 6.80894 13.1197 6.94143 13.1676 7.08907C13.2155 7.2367 13.2239 7.39432 13.1919 7.5462C13.1599 7.69808 13.0887 7.83892 12.9853 7.95468L11.5616 9.54883C11.4795 9.64073 11.4174 9.74871 11.3793 9.86591C11.3411 9.98311 11.3278 10.107 11.3402 10.2296L11.5551 12.3565C11.5707 12.511 11.5456 12.6669 11.4822 12.8086C11.4188 12.9504 11.3193 13.073 11.1937 13.1643C11.0681 13.2556 10.9207 13.3124 10.7663 13.3289C10.6119 13.3455 10.4559 13.3212 10.3137 13.2586L8.35791 12.3968C8.24506 12.347 8.1231 12.3213 7.99977 12.3213C7.87645 12.3213 7.75448 12.347 7.64164 12.3968L5.6858 13.2586C5.54369 13.3212 5.38765 13.3455 5.23324 13.3289C5.07884 13.3124 4.93148 13.2556 4.80586 13.1643C4.68024 13.073 4.58076 12.9504 4.51735 12.8086C4.45393 12.6669 4.4288 12.511 4.44446 12.3565L4.65934 10.2296C4.67178 10.107 4.65858 9.98318 4.62056 9.86598C4.58255 9.74878 4.52056 9.64078 4.43854 9.54883L3.01429 7.95468C2.91089 7.83892 2.83964 7.69808 2.80764 7.5462C2.77565 7.39432 2.78403 7.2367 2.83194 7.08907C2.87985 6.94143 2.96563 6.80894 3.08072 6.70479C3.19581 6.60064 3.33618 6.52848 3.48785 6.4955L5.57747 6.04325C5.698 6.01718 5.81178 5.96629 5.91156 5.89383C6.01133 5.82136 6.09492 5.72891 6.157 5.62236L7.23259 3.77485Z" fill="#FCD34D"/>
</svg>
