<svg width="24" height="24" viewBox="0 0 24 24" fill="none" xmlns="http://www.w3.org/2000/svg">
<path d="M4 19V17.2237C4 16.137 4.49778 15.0712 5.50222 14.6206C6.72711 14.0702 8.19733 13.75 9.77778 13.75C10.8844 13.75 11.9369 13.9075 12.8889 14.1901M14.2222 5.12687C14.8639 5.3159 15.4266 5.70365 15.8266 6.23251C16.2266 6.76137 16.4427 7.40314 16.4427 8.0625C16.4427 8.72186 16.2266 9.36363 15.8266 9.89249C15.4266 10.4214 14.8639 10.8091 14.2222 10.9981M17.3333 13.75V19M14.6667 16.375H20M12.8889 8.0625C12.8889 9.75387 11.496 11.125 9.77778 11.125C8.05956 11.125 6.66667 9.75387 6.66667 8.0625C6.66667 6.37113 8.05956 5 9.77778 5C11.496 5 12.8889 6.37113 12.8889 8.0625Z" stroke="#52525B" stroke-linecap="round" stroke-linejoin="round"/>
</svg>
