<svg width="48" height="48" viewBox="0 0 48 48" fill="none" xmlns="http://www.w3.org/2000/svg">
<path d="M16.0001 17.3334V32.6658C15.9999 33.1037 16.086 33.5373 16.2535 33.9418C16.421 34.3464 16.6666 34.714 16.9762 35.0236C17.2858 35.3332 17.6534 35.5787 18.0579 35.7462C18.4625 35.9137 18.8961 35.9998 19.3339 35.9997H28.6677C29.5515 35.9997 30.3992 35.6486 31.0242 35.0236C31.6492 34.3986 32.0003 33.5509 32.0003 32.6671V17.3321M13.334 17.3334H34.6676M20.0004 17.3334V15.3326C20.0001 15.0698 20.0517 14.8095 20.1521 14.5667C20.2526 14.3239 20.3999 14.1033 20.5858 13.9175C20.7717 13.7318 20.9924 13.5845 21.2353 13.4842C21.4782 13.3839 21.7384 13.3325 22.0012 13.333H26.0004C26.2631 13.3325 26.5234 13.3839 26.7663 13.4842C27.0092 13.5845 27.2299 13.7318 27.4158 13.9175C27.6017 14.1033 27.749 14.3239 27.8495 14.5667C27.9499 14.8095 28.0015 15.0698 28.0012 15.3326V17.3334M21.3347 30.7827V24.1187M26.6681 30.7827V24.1187" stroke="#111111" stroke-linecap="round" stroke-linejoin="round"/>
</svg>
