<svg width="20" height="20" viewBox="0 0 20 20" fill="none" xmlns="http://www.w3.org/2000/svg">
<path d="M5.55556 18C5.39778 18 5.26593 17.9473 5.16001 17.842C5.05408 17.7367 5.00075 17.6061 5.00001 17.4503C4.99927 17.2945 5.0526 17.1643 5.16001 17.0597C5.26741 16.9551 5.39927 16.9028 5.55556 16.9028H14.4444C14.6022 16.9028 14.7341 16.9555 14.84 17.0608C14.9459 17.1661 14.9993 17.2967 15 17.4525C15.0007 17.6083 14.9474 17.7385 14.84 17.8431C14.7326 17.9477 14.6007 18 14.4444 18H5.55556ZM9.60333 14.129C9.49741 14.0237 9.44445 13.8935 9.44445 13.7384V4.70507L6.35112 7.75422C6.24667 7.85663 6.12371 7.90527 5.98223 7.90015C5.84075 7.89503 5.71445 7.83908 5.60334 7.73228C5.50186 7.63426 5.45112 7.50991 5.45112 7.35923C5.45112 7.20854 5.50297 7.08127 5.60667 6.9774L9.37222 3.25894C9.46852 3.16385 9.56852 3.09692 9.67222 3.05815C9.77445 3.01938 9.88444 3 10.0022 3C10.12 3 10.2296 3.01938 10.3311 3.05815C10.4326 3.09619 10.5319 3.16312 10.6289 3.25894L14.4144 6.99824C14.5181 7.10065 14.5711 7.22208 14.5733 7.36252C14.5755 7.50223 14.5226 7.62658 14.4144 7.73557C14.3152 7.83652 14.1889 7.88699 14.0356 7.88699C13.8822 7.88699 13.7537 7.83578 13.65 7.73338L10.5556 4.70397V13.7373C10.5556 13.8924 10.5022 14.0226 10.3956 14.1279C10.2889 14.2333 10.1567 14.2859 9.99889 14.2859C9.84111 14.2859 9.70926 14.2344 9.60333 14.129Z" fill="#475569"/>
</svg>
