<svg width="23" height="24" viewBox="0 0 23 24" fill="none" xmlns="http://www.w3.org/2000/svg">
<path d="M3.16609 4.50036V19.8328C3.16593 20.2707 3.25205 20.7043 3.41953 21.1088C3.58702 21.5134 3.83258 21.881 4.14219 22.1906C4.4518 22.5002 4.81938 22.7457 5.22393 22.9132C5.62848 23.0807 6.06208 23.1668 6.49993 23.1667H15.8337C16.7176 23.1667 17.5652 22.8156 18.1902 22.1906C18.8152 21.5656 19.1663 20.7179 19.1663 19.8341V4.49914M0.5 4.50036H21.8336M7.16645 4.50036V2.49957C7.16613 2.23679 7.21767 1.97653 7.31812 1.7337C7.41857 1.49088 7.56595 1.27027 7.75182 1.08451C7.93769 0.898752 8.1584 0.751503 8.40128 0.651202C8.64417 0.550901 8.90446 0.49952 9.16724 0.500003H13.1664C13.4292 0.49952 13.6895 0.550901 13.9323 0.651202C14.1752 0.751503 14.3959 0.898752 14.5818 1.08451C14.7677 1.27027 14.9151 1.49088 15.0155 1.7337C15.116 1.97653 15.1675 2.23679 15.1672 2.49957V4.50036M8.50072 17.9497V11.2857M13.8341 17.9497V11.2857" stroke="#F8FAFC" stroke-linecap="round" stroke-linejoin="round"/>
</svg>
