<svg width="20" height="20" viewBox="0 0 20 20" fill="none" xmlns="http://www.w3.org/2000/svg">
<path d="M16.4286 20H3.57138C1.59909 20 0 18.4009 0 16.4286L0 3.57138C0 1.59909 1.59909 0 3.57138 0L16.4286 0C18.4009 0 20 1.59909 20 3.57138V16.4286C20 18.4013 18.4013 20 16.4286 20Z" fill="url(#paint0_radial_11516_17291)"/>
<path d="M10.0002 5.50488C11.4644 5.50488 11.6377 5.51036 12.2158 5.53693C12.7505 5.56139 13.0407 5.65079 13.2338 5.72585C13.4898 5.82537 13.6724 5.94387 13.8643 6.13617C14.0561 6.32804 14.175 6.51064 14.2746 6.76661C14.3496 6.95975 14.439 7.2503 14.4635 7.78502C14.4896 8.36317 14.4955 8.53649 14.4955 10.0006C14.4955 11.4648 14.4901 11.6381 14.4635 12.2163C14.439 12.751 14.3496 13.0411 14.2746 13.2342C14.175 13.4902 14.0561 13.6728 13.8643 13.8647C13.6724 14.0566 13.4898 14.1755 13.2338 14.2746C13.0407 14.3496 12.7501 14.439 12.2158 14.4635C11.6377 14.4896 11.4644 14.4955 10.0002 14.4955C8.53607 14.4955 8.36275 14.4901 7.7846 14.4635C7.24988 14.439 6.95975 14.3496 6.76661 14.2746C6.51064 14.175 6.32804 14.0561 6.13617 13.8647C5.94429 13.6728 5.82538 13.4902 5.72585 13.2342C5.65079 13.0411 5.56139 12.751 5.53693 12.2163C5.51079 11.6381 5.50488 11.4648 5.50488 10.0006C5.50488 8.53649 5.51037 8.36317 5.53693 7.78502C5.56139 7.2503 5.65079 6.96017 5.72585 6.76661C5.82538 6.51064 5.94429 6.32804 6.13617 6.13617C6.32804 5.94429 6.51064 5.82537 6.76661 5.72585C6.95975 5.65079 7.2503 5.56139 7.7846 5.53693C8.36275 5.51078 8.53607 5.50488 10.0002 5.50488ZM10.0002 4.51726C8.51119 4.51726 8.32437 4.52358 7.73948 4.55015C7.15584 4.57672 6.75733 4.66949 6.40859 4.80486C6.04803 4.94486 5.7423 5.13252 5.43741 5.43741C5.13252 5.7423 4.94529 6.04803 4.80528 6.40859C4.66949 6.75733 4.57714 7.15584 4.55057 7.73947C4.52401 8.32437 4.51768 8.51119 4.51768 10.0002C4.51768 11.4892 4.52401 11.676 4.55057 12.2609C4.57714 12.8446 4.66992 13.2431 4.80528 13.5918C4.94529 13.9524 5.13294 14.2581 5.43741 14.563C5.7423 14.8679 6.04803 15.0551 6.40859 15.1956C6.75733 15.3309 7.15584 15.4237 7.73948 15.4503C8.32437 15.4768 8.51119 15.4832 10.0002 15.4832C11.4892 15.4832 11.6761 15.4768 12.261 15.4503C12.8446 15.4237 13.2431 15.3309 13.5918 15.1956C13.9524 15.0556 14.2581 14.8679 14.563 14.563C14.8679 14.2581 15.0551 13.9524 15.1956 13.5918C15.3309 13.2431 15.4237 12.8446 15.4503 12.2609C15.4768 11.676 15.4832 11.4892 15.4832 10.0002C15.4832 8.51119 15.4768 8.32437 15.4503 7.73947C15.4237 7.15584 15.3309 6.75733 15.1956 6.40859C15.0556 6.04803 14.8679 5.7423 14.563 5.43741C14.2581 5.13252 13.9524 4.94528 13.5918 4.80486C13.2431 4.66949 12.8446 4.57672 12.261 4.55015C11.6761 4.52358 11.4892 4.51726 10.0002 4.51726Z" fill="white"/>
<path d="M10.0002 7.18451C8.4454 7.18451 7.18452 8.44498 7.18452 10.0002C7.18452 11.5554 8.44498 12.8159 10.0002 12.8159C11.5554 12.8159 12.8159 11.5554 12.8159 10.0002C12.8159 8.44498 11.555 7.18451 10.0002 7.18451ZM10.0002 11.8279C8.99066 11.8279 8.17256 11.0093 8.17256 10.0002C8.17256 8.99066 8.99066 8.17256 10.0002 8.17256C11.0098 8.17256 11.8279 8.99066 11.8279 10.0002C11.8279 11.0093 11.0093 11.8279 10.0002 11.8279Z" fill="white"/>
<path d="M13.5851 7.07319C13.5851 7.43669 13.2903 7.73104 12.9272 7.73104C12.5637 7.73104 12.2694 7.43627 12.2694 7.07319C12.2694 6.70968 12.5637 6.41533 12.9272 6.41533C13.2903 6.41533 13.5851 6.7101 13.5851 7.07319Z" fill="white"/>
<defs>
<radialGradient id="paint0_radial_11516_17291" cx="0" cy="0" r="1" gradientUnits="userSpaceOnUse" gradientTransform="translate(-0.500304 20.0665) scale(36.978)">
<stop stop-color="#F5EC53"/>
<stop offset="0.2412" stop-color="#E48244"/>
<stop offset="0.3974" stop-color="#D15767"/>
<stop offset="0.4888" stop-color="#C84278"/>
<stop offset="1" stop-color="#192CFA"/>
</radialGradient>
</defs>
</svg>
