<svg width="24" height="24" viewBox="0 0 24 24" fill="none" xmlns="http://www.w3.org/2000/svg">
<path d="M15.4286 10.289V10.3M4.57143 15.25L8.73829 11.2394C8.8664 11.1159 9.01854 11.018 9.18601 10.9512C9.35348 10.8843 9.53299 10.85 9.71429 10.85C9.89558 10.85 10.0751 10.8843 10.2426 10.9512C10.41 11.018 10.5622 11.1159 10.6903 11.2394L14.5714 14.975L16.3691 13.2447C16.4986 13.1202 16.6741 13.0502 16.8571 13.0502C17.0402 13.0502 17.2157 13.1202 17.3451 13.2447L19.4286 15.25M9.71429 18H14.2857C16.9794 18 18.3257 18 19.1634 17.1948C20 16.3885 20 15.0927 20 12.5C20 9.9073 20 8.6104 19.1634 7.8052C18.3257 7 16.9794 7 14.2857 7H9.71429C7.02057 7 5.67314 7 4.83657 7.8052C4 8.6104 4 9.9073 4 12.5C4 15.0927 4 16.3885 4.83657 17.1948C5.67314 18.0011 7.02057 18 9.71429 18Z" stroke="#64748B" stroke-linecap="round" stroke-linejoin="round"/>
</svg>
