<svg width="20" height="20" viewBox="0 0 20 20" fill="none" xmlns="http://www.w3.org/2000/svg">
<path d="M16.4286 20H3.57139C1.59909 20 0 18.4009 0 16.4286V3.57139C0 1.59909 1.59909 0 3.57139 0H16.4286C18.4009 0 20 1.59909 20 3.57139V16.4286C20 18.4013 18.4009 20 16.4286 20Z" fill="#117BB8"/>
<path d="M7.53455 7.77344H5.46484V14.4595H7.53455V7.77344Z" fill="white"/>
<path d="M6.4894 6.89706C7.16539 6.89706 7.71318 6.34421 7.71318 5.66316C7.71318 4.98212 7.16539 4.42969 6.4894 4.42969C5.81342 4.42969 5.26563 4.98212 5.26563 5.66316C5.26562 6.34421 5.813 6.89706 6.4894 6.89706Z" fill="white"/>
<path d="M10.8428 10.9507C10.8428 10.0107 11.2755 9.45068 12.1037 9.45068C12.8648 9.45068 13.2305 9.98835 13.2305 10.9507C13.2305 11.9138 13.2305 14.4605 13.2305 14.4605H15.2905C15.2905 14.4605 15.2905 12.018 15.2905 10.227C15.2905 8.43607 14.2754 7.57031 12.8577 7.57031C11.4395 7.57031 10.8428 8.67517 10.8428 8.67517V7.77442H8.85742V14.4605H10.8428C10.8428 14.4605 10.8428 11.9809 10.8428 10.9507Z" fill="white"/>
</svg>
