<svg width="24" height="24" viewBox="0 0 24 24" fill="none" xmlns="http://www.w3.org/2000/svg">
<path d="M7 15.2857V10.7143C7 8.02057 7 6.67314 7.8052 5.83657C8.6104 5 9.9073 5 12.5 5C15.0927 5 16.3896 5 17.1948 5.83657C18 6.67314 18 8.02057 18 10.7143V15.2857M7 15.2857C7 17.9794 7 19.3269 7.8052 20.1634C8.6104 21 9.9073 21 12.5 21C15.0927 21 16.3896 21 17.1948 20.1634C18 19.3269 18 17.9794 18 15.2857M7 15.2857L9.9106 12.2617C10.0339 12.1334 10.1803 12.0317 10.3415 11.9623C10.5027 11.8928 10.6755 11.8571 10.85 11.8571C11.0245 11.8571 11.1973 11.8928 11.3585 11.9623C11.5197 12.0317 11.6661 12.1334 11.7894 12.2617L13.875 14.4286L15.0553 13.2023C15.1799 13.0729 15.3488 13.0002 15.525 13.0002C15.7012 13.0002 15.8701 13.0729 15.9947 13.2023L18 15.2857M14.15 8.98857V9" stroke="#1E293B" stroke-linecap="round" stroke-linejoin="round"/>
</svg>
