<svg width="24" height="24" viewBox="0 0 24 24" fill="none" xmlns="http://www.w3.org/2000/svg">
<rect x="0.5" y="0.5" width="23" height="23" rx="11.5" fill="#F8FAFC"/>
<rect x="0.5" y="0.5" width="23" height="23" rx="11.5" stroke="#E2E8F0"/>
<path d="M15.1667 11.2619H16.1667C16.6667 11.2619 17 11.5714 17 12.0357V17.2262C17 17.6905 16.6667 18 16.1667 18H7.83333C7.33333 18 7 17.6905 7 17.2262V12.0357C7 11.5714 7.33333 11.2619 7.83333 11.2619H8.83333M15.1667 11.2619V8.94048C15.1667 7.31548 13.75 6 12 6C10.25 6 8.83333 7.31548 8.83333 8.94048V11.2619M15.1667 11.2619H8.83333" stroke="#E2E8F0"/>
</svg>
