<svg width="20" height="20" viewBox="0 0 20 20" fill="none" xmlns="http://www.w3.org/2000/svg">
<path d="M16.4286 20H3.57138C1.59909 20 0 18.4009 0 16.4286V3.57139C0 1.59909 1.59909 0 3.57138 0H16.4286C18.4009 0 20 1.59909 20 3.57139V16.4286C20 18.4013 18.4009 20 16.4286 20Z" fill="#C3271A"/>
<path d="M17.6684 6.12268C17.4846 5.4294 16.9418 4.88372 16.2532 4.69817C15.005 4.36165 9.99937 4.36165 9.99937 4.36165C9.99937 4.36165 4.99377 4.36165 3.74554 4.69817C3.0569 4.8833 2.5146 5.4294 2.33032 6.12268C1.99591 7.37892 1.99591 10.0002 1.99591 10.0002C1.99591 10.0002 1.99591 12.6215 2.33032 13.8778C2.5146 14.571 3.0569 15.1167 3.74554 15.3023C4.99377 15.6388 9.99937 15.6388 9.99937 15.6388C9.99937 15.6388 15.0045 15.6388 16.2532 15.3023C16.9418 15.1171 17.4841 14.571 17.6684 13.8778C18.0028 12.6215 18.0028 10.0002 18.0028 10.0002C18.0028 10.0002 18.0033 7.37892 17.6684 6.12268Z" fill="white"/>
<path d="M8.36274 12.3803V7.62013L12.5464 10.0002L8.36274 12.3803Z" fill="#C3271A"/>
</svg>
